<mxfile host="Electron" modified="2024-05-13T19:54:25.252Z" agent="Mozilla/5.0 (Macintosh; Intel Mac OS X 10_15_7) AppleWebKit/537.36 (KHTML, like Gecko) draw.io/23.0.2 Chrome/120.0.6099.109 Electron/28.1.0 Safari/537.36" etag="MPUrKjcr-2bZEtnZ1VON" version="23.0.2" type="device">
  <diagram name="Page-1" id="yYQiJCMNqRv9AaFylvqt">
    <mxGraphModel dx="2069" dy="-291" grid="1" gridSize="10" guides="1" tooltips="1" connect="1" arrows="1" fold="1" page="1" pageScale="1" pageWidth="827" pageHeight="1169" math="0" shadow="0">
      <root>
        <mxCell id="0" />
        <mxCell id="1" parent="0" />
        <mxCell id="c5SWcreiiaStJHHrbM4M-32" value="AWS Cloud" style="points=[[0,0],[0.25,0],[0.5,0],[0.75,0],[1,0],[1,0.25],[1,0.5],[1,0.75],[1,1],[0.75,1],[0.5,1],[0.25,1],[0,1],[0,0.75],[0,0.5],[0,0.25]];outlineConnect=0;html=1;whiteSpace=wrap;fontSize=12;fontStyle=0;container=0;pointerEvents=0;collapsible=0;recursiveResize=0;shape=mxgraph.aws4.group;grIcon=mxgraph.aws4.group_aws_cloud_alt;verticalAlign=top;align=left;spacingLeft=30;dashed=0;" vertex="1" parent="1">
          <mxGeometry x="-140" y="1460" width="660" height="630" as="geometry" />
        </mxCell>
        <mxCell id="c5SWcreiiaStJHHrbM4M-33" style="edgeStyle=orthogonalEdgeStyle;rounded=0;orthogonalLoop=1;jettySize=auto;html=1;" edge="1" parent="1" source="c5SWcreiiaStJHHrbM4M-28" target="c5SWcreiiaStJHHrbM4M-31">
          <mxGeometry relative="1" as="geometry" />
        </mxCell>
        <mxCell id="c5SWcreiiaStJHHrbM4M-28" value="Data Scientist" style="sketch=0;outlineConnect=0;fontColor=#232F3E;gradientColor=none;fillColor=#232F3D;strokeColor=none;dashed=0;verticalLabelPosition=bottom;verticalAlign=top;align=center;html=1;fontSize=12;fontStyle=0;aspect=fixed;pointerEvents=1;shape=mxgraph.aws4.authenticated_user;" vertex="1" parent="1">
          <mxGeometry x="-520" y="1780" width="78" height="78" as="geometry" />
        </mxCell>
        <mxCell id="c5SWcreiiaStJHHrbM4M-29" style="edgeStyle=orthogonalEdgeStyle;rounded=0;orthogonalLoop=1;jettySize=auto;html=1;entryX=0;entryY=0.5;entryDx=0;entryDy=0;entryPerimeter=0;" edge="1" parent="1" source="c5SWcreiiaStJHHrbM4M-28" target="10">
          <mxGeometry relative="1" as="geometry">
            <Array as="points">
              <mxPoint x="-481" y="1590" />
              <mxPoint x="-221" y="1590" />
              <mxPoint x="-221" y="1589" />
            </Array>
          </mxGeometry>
        </mxCell>
        <mxCell id="10" value="&lt;font style=&quot;font-size: 12px;&quot;&gt;&lt;span style=&quot;background-color: rgb(255, 255, 255);&quot;&gt;Amazon ECR&lt;br&gt;hydra-sm-artifact&lt;br&gt;&lt;/span&gt;&lt;/font&gt;" style="sketch=0;points=[[0,0,0],[0.25,0,0],[0.5,0,0],[0.75,0,0],[1,0,0],[0,1,0],[0.25,1,0],[0.5,1,0],[0.75,1,0],[1,1,0],[0,0.25,0],[0,0.5,0],[0,0.75,0],[1,0.25,0],[1,0.5,0],[1,0.75,0]];outlineConnect=0;fontColor=#232F3E;fillColor=#ED7100;strokeColor=#ffffff;dashed=0;verticalLabelPosition=bottom;verticalAlign=top;align=center;html=1;fontSize=12;fontStyle=0;aspect=fixed;shape=mxgraph.aws4.resourceIcon;resIcon=mxgraph.aws4.ecr;" parent="1" vertex="1">
          <mxGeometry y="1550" width="78" height="78" as="geometry" />
        </mxCell>
        <mxCell id="c5SWcreiiaStJHHrbM4M-39" style="edgeStyle=orthogonalEdgeStyle;rounded=0;orthogonalLoop=1;jettySize=auto;html=1;" edge="1" parent="1" source="12" target="c5SWcreiiaStJHHrbM4M-23">
          <mxGeometry relative="1" as="geometry" />
        </mxCell>
        <mxCell id="c5SWcreiiaStJHHrbM4M-20" style="edgeStyle=orthogonalEdgeStyle;rounded=0;orthogonalLoop=1;jettySize=auto;html=1;" edge="1" parent="1" source="13" target="c5SWcreiiaStJHHrbM4M-23">
          <mxGeometry relative="1" as="geometry">
            <mxPoint x="260" y="1860" as="targetPoint" />
          </mxGeometry>
        </mxCell>
        <mxCell id="13" value="Amazon S3 Bucket&amp;nbsp;&lt;br&gt;&lt;span style=&quot;background-color: rgb(255, 255, 255);&quot;&gt;hydra-sample-config&lt;br&gt;&lt;/span&gt;" style="sketch=0;points=[[0,0,0],[0.25,0,0],[0.5,0,0],[0.75,0,0],[1,0,0],[0,1,0],[0.25,1,0],[0.5,1,0],[0.75,1,0],[1,1,0],[0,0.25,0],[0,0.5,0],[0,0.75,0],[1,0.25,0],[1,0.5,0],[1,0.75,0]];outlineConnect=0;fontColor=#232F3E;fillColor=#7AA116;strokeColor=#ffffff;dashed=0;verticalLabelPosition=bottom;verticalAlign=top;align=center;html=1;fontSize=12;fontStyle=0;aspect=fixed;shape=mxgraph.aws4.resourceIcon;resIcon=mxgraph.aws4.s3;" parent="1" vertex="1">
          <mxGeometry y="1950" width="78" height="78" as="geometry" />
        </mxCell>
        <mxCell id="c5SWcreiiaStJHHrbM4M-40" style="edgeStyle=orthogonalEdgeStyle;rounded=0;orthogonalLoop=1;jettySize=auto;html=1;" edge="1" parent="1" source="c5SWcreiiaStJHHrbM4M-23" target="12">
          <mxGeometry relative="1" as="geometry">
            <Array as="points">
              <mxPoint x="250" y="1710" />
              <mxPoint x="250" y="1710" />
            </Array>
          </mxGeometry>
        </mxCell>
        <mxCell id="12" value="&lt;span style=&quot;background-color: rgb(255, 255, 255);&quot;&gt;Amazon S3 Bucket&lt;br&gt;hydra-sample-data&lt;br&gt;&lt;/span&gt;" style="sketch=0;points=[[0,0,0],[0.25,0,0],[0.5,0,0],[0.75,0,0],[1,0,0],[0,1,0],[0.25,1,0],[0.5,1,0],[0.75,1,0],[1,1,0],[0,0.25,0],[0,0.5,0],[0,0.75,0],[1,0.25,0],[1,0.5,0],[1,0.75,0]];outlineConnect=0;fontColor=#232F3E;fillColor=#7AA116;strokeColor=#ffffff;dashed=0;verticalLabelPosition=bottom;verticalAlign=top;align=center;html=1;fontSize=12;fontStyle=0;aspect=fixed;shape=mxgraph.aws4.resourceIcon;resIcon=mxgraph.aws4.s3;" parent="1" vertex="1">
          <mxGeometry x="219.9999999999999" y="1550" width="78" height="78" as="geometry" />
        </mxCell>
        <mxCell id="c5SWcreiiaStJHHrbM4M-23" value="&lt;span style=&quot;background-color: rgb(255, 255, 255);&quot;&gt;Amazon SageMaker&lt;br&gt;Training/ HPO Job&lt;/span&gt;" style="sketch=0;points=[[0,0,0],[0.25,0,0],[0.5,0,0],[0.75,0,0],[1,0,0],[0,1,0],[0.25,1,0],[0.5,1,0],[0.75,1,0],[1,1,0],[0,0.25,0],[0,0.5,0],[0,0.75,0],[1,0.25,0],[1,0.5,0],[1,0.75,0]];outlineConnect=0;fontColor=#232F3E;fillColor=#01A88D;strokeColor=#ffffff;dashed=0;verticalLabelPosition=bottom;verticalAlign=top;align=center;html=1;fontSize=12;fontStyle=0;aspect=fixed;shape=mxgraph.aws4.resourceIcon;resIcon=mxgraph.aws4.sagemaker;" vertex="1" parent="1">
          <mxGeometry x="220" y="1780" width="78" height="78" as="geometry" />
        </mxCell>
        <mxCell id="c5SWcreiiaStJHHrbM4M-24" style="edgeStyle=orthogonalEdgeStyle;rounded=0;orthogonalLoop=1;jettySize=auto;html=1;entryX=0;entryY=0.5;entryDx=0;entryDy=0;entryPerimeter=0;" edge="1" parent="1" source="10" target="c5SWcreiiaStJHHrbM4M-23">
          <mxGeometry relative="1" as="geometry" />
        </mxCell>
        <mxCell id="c5SWcreiiaStJHHrbM4M-34" style="edgeStyle=orthogonalEdgeStyle;rounded=0;orthogonalLoop=1;jettySize=auto;html=1;" edge="1" parent="1" source="c5SWcreiiaStJHHrbM4M-31" target="13">
          <mxGeometry relative="1" as="geometry" />
        </mxCell>
        <mxCell id="c5SWcreiiaStJHHrbM4M-35" style="edgeStyle=orthogonalEdgeStyle;rounded=0;orthogonalLoop=1;jettySize=auto;html=1;" edge="1" parent="1" source="c5SWcreiiaStJHHrbM4M-31" target="c5SWcreiiaStJHHrbM4M-23">
          <mxGeometry relative="1" as="geometry" />
        </mxCell>
        <mxCell id="c5SWcreiiaStJHHrbM4M-31" value="Hydra" style="shape=image;verticalLabelPosition=bottom;labelBackgroundColor=default;verticalAlign=top;aspect=fixed;imageAspect=0;image=data:image/svg+xml,PHN2ZyB4bWxucz0iaHR0cDovL3d3dy53My5vcmcvMjAwMC9zdmciIHZpZXdCb3g9IjAgMCAzNzkuMTcgMjUyLjc2Ij48ZGVmcz48c3R5bGU+LmNscy0xe29wYWNpdHk6MC4xO30uY2xzLTJ7ZmlsbDojMjc2NDc1O30uY2xzLTN7ZmlsbDojN2FhNWJkO30uY2xzLTR7ZmlsbDojY2JjYmNiO30uY2xzLTV7b3BhY2l0eTowLjM5O30uY2xzLTZ7ZmlsbDojZmZmO308L3N0eWxlPjwvZGVmcz48dGl0bGU+SHlkcmEtRnVsbC1Db2xvcjwvdGl0bGU+PGcgZGF0YS1uYW1lPSJTdGFuZCBDaXJjbGUiIGlkPSJTdGFuZF9DaXJjbGUiPjxnIGNsYXNzPSJjbHMtMSI+PGVsbGlwc2Ugcnk9IjEzLjQ3IiByeD0iOTUuMjIiIGN5PSIyMjYuMzkiIGN4PSIxODUuODgiIGNsYXNzPSJjbHMtMiIvPjwvZz48L2c+PGcgZGF0YS1uYW1lPSJDb2xvciBCYWNrZ3JvdW5kIiBpZD0iQ29sb3JfQmFja2dyb3VuZCI+PHBhdGggZD0iTTI0OCwxNTJoMEMyNDguMDgsMTUyLDI0OC4xNSwxNTEuOTIsMjQ4LDE1MloiIGNsYXNzPSJjbHMtMyIvPjxwYXRoIGQ9Ik0zNjAuMjYsMTQ2YzAsLjA2LDAsLjEzLS4wNy4xMy01LjU0LDAtMTIuMzYsMS42My0xOS4xOSw1YTQ4Ljg4LDQ4Ljg4LDAsMCwwLTE0LjU5LDEwLjguMDguMDgsMCwwLDEtLjEsMCw0Mi4yNiw0Mi4yNiwwLDAsMC04LjA1LTMuMjdsLS40Mi0uMTNhNTIsNTIsMCwwLDAtNS43NS0xLjMxLDQ2LjgzLDQ2LjgzLDAsMCwwLTE1LjUtLjE4LDIzLjQ5LDIzLjQ5LDAsMCwwLTguNTQsM2MtLjIyLjEzLS40NC4yOC0uNjQuNDJsLS4xNS0uMDlhNDMuMjcsNDMuMjcsMCwwLDAtNC43Mi0yLjQxLDI1LjM1LDI1LjM1LDAsMCwwLTYuMzUtMmgtLjA2bC0uNDMtLjA1YTMwLjI0LDMwLjI0LDAsMCwwLTYuMzgsMGwtLjc1LjA4YTQ3LjY2LDQ3LjY2LDAsMCwwLTExLjQ3LDNjLTUuMzcsMi4wOC0xMi44Nyw1LjI3LTE1LjgsMTAuNTItMS44NCwzLjMxLTMuMzcsNi4xOC01LjEsOS41NC0xLjQ0LDIuNzgtMiw1LjIyLTQuMjIsNy41LS40LjQzLS44Mi44My0xLjI0LDEuMjRhMzEuMTUsMzEuMTUsMCwwLDEsNS43NCwzLjgyLDguMTYsOC4xNiwwLDAsMSwyLjU2LDVjLjA1LjI2LjA5LjUzLjEyLjhhMTYuNCwxNi40LDAsMCwxLDAsMy41N2wtLjA5LjY1YS4xMy4xMywwLDAsMSwwLC4wNmMwLC4yMi0uMDcuNDQtLjExLjY2YTE3LjUxLDE3LjUxLDAsMCwxLS40MSwxLjczLjk0Ljk0LDAsMCwxLDAsLjE2LDM4LDM4LDAsMCwxLTEwLDE1LjU4YzMuMzUtMS42Miw1LC41MSw1LC41MSwyLjkuNCwzLjQyLDEuMjgsNS4wNiwxczQuMTktMS40Myw2LjA2LjFhMzIuMjIsMzIuMjIsMCwwLDEsMywyLjQzLDEuMTEsMS4xMSwwLDAsMSwuMjQuNDcsMS4xMywxLjEzLDAsMCwxLDAsLjU4LDEsMSwwLDAsMS0uNTcuNiwyLjkxLDIuOTEsMCwwLDEtMS42NC4wOGMtMi4yMy0uNDEtNC0uNTItNC4zMS0uMjdoMGExMy43NywxMy43NywwLDAsMSwxLjI5LDEuNzIuNjkuNjksMCwwLDEsLjExLjQxLjE5LjE5LDAsMCwxLDAsLjA4LjY5LjY5LDAsMCwxLS41Mi41Nyw2LjI0LDYuMjQsMCwwLDEtMy4xMS4xNmMtMS4yOS0uMzMtMi45LTEuNTItNC0xLjgyYS41Ni41NiwwLDAsMC0uNTUuMTUuNjMuNjMsMCwwLDAtLjE5LjUyLDQsNCwwLDAsMS0uNTEsMi4xNmwtLjI5LjYtLjA4LjE3YS44Mi44MiwwLDAsMS0xLjMzLjIzLDUuNzIsNS43MiwwLDAsMC0xLjg3LTEuMjcsMS42OSwxLjY5LDAsMCwxLS41LS4zMWwtLjE4LS4wOWgwYy0xLjQ1LS42OS0xMC44Ny00LjkyLTE2LjQyLTEuOTQtLjg0LjQ1LTEuMzIuMTctMS40Mi0uNTJhMywzLDAsMCwxLDAtLjMyLDIuNjUsMi42NSwwLDAsMSwwLS4yNywzLjYxLDMuNjEsMCwwLDEsLjEzLS43NC43NC43NCwwLDAsMCwwLS4xNGMwLS4xMS4wNy0uMjIuMTEtLjM0YTkuMTEsOS4xMSwwLDAsMSw0Ljg2LTUsLjkuOSwwLDAsMCwuNTEtLjY4LjU3LjU3LDAsMCwwLDAtLjE4LjEzLjEzLDAsMCwwLDAtLjA2LDAsMCwwLDAsMCwwLS4wNS44NS44NSwwLDAsMC0uMDktLjM4LDIzLjIyLDIzLjIyLDAsMCwxLTEuNTYtNC45M2MtLjA3LS4zMS0uMTQtLjYzLS4yLTFzLS4xNS0uNzctLjIyLTEuMTYtLjEzLS43OC0uMi0xLjE4LS4xMy0uODEtLjE4LTEuMjEtLjEtLjY4LS4xNC0xYTEuMSwxLjEsMCwwLDEsMC0uMThjMC0uMy0uMDgtLjYxLS4xMS0uOTEtLjEyLTEuMTUtLjIxLTIuMjctLjI3LTMuMzNxMC0uNDIsMC0uODFjMC0uOTQsMC0xLjgsMC0yLjU1LDAtLjE4LDAtLjM1LDAtLjUyczAtLjE5LDAtLjI3bDAtLjI5YzAtLjA1LDAtLjEsMC0uMTVhLjI5LjI5LDAsMCwwLDAtLjA5Yy0xLjg1Ljc0LTMuNzMsMS4zOC01LjU2LDIuMTdsLS4xMSwwaC0uMTJhLjYyLjYyLDAsMCwxLS4zNy0uMTEsNjYuNTgsNjYuNTgsMCwwLDEtMTUuNDQsMi45NWMtMS41MS4xMi0zLC4xNy00LjU0LjE3LS41NiwwLTEuMTMsMC0xLjY4LDAtMS45LDAtMy43OS0uMTctNS42My0uMzlhNTYuMiw1Ni4yLDAsMCwxLTEwLjYtMi4zNC41MS41MSwwLDAsMS0uMjcuMDkuMTguMTgsMCwwLDEtLjEsMCwuNjcuNjcsMCwwLDEtLjI0LDBjLTEuNDctLjUtMi45LTEuMDUtNC4zLTEuNjdsLS42OS0uM2MuNDMsNC43NC0xLDE1LjE5LTIuODcsMTguNzdhMSwxLDAsMCwwLC40MiwxLjM1YzUuMjcsMi4yMiw2LjUxLDguOCwzLjczLDcuMy02LTMuMjMtMTYuNjIsMi0xNi42MiwyYTEuNDMsMS40MywwLDAsMS0uNS4zMiw1LjQyLDUuNDIsMCwwLDAtMS44NiwxLjI3LjgzLjgzLDAsMCwxLTEuMzQtLjI0bC0uMzYtLjc2YTQsNCwwLDAsMS0uNTItMi4xNi42LjYsMCwwLDAtLjc0LS42N2MtMS4wNi4zLTIuNjcsMS40OS00LDEuODJhNi4xOSw2LjE5LDAsMCwxLTMuMS0uMTYuNzEuNzEsMCwwLDEtLjQyLTEuMDdBMTIsMTIsMCwwLDEsMTM4LDIyNS4xaDBjLS4zLS4yNi0yLjA5LS4xNC00LjMyLjI2YTIuODEsMi44MSwwLDAsMS0xLjYzLS4wNywxLDEsMCwwLDEtLjM3LTEuNjUsMzIuNjgsMzIuNjgsMCwwLDEsMy0yLjQzYzEuODYtMS41Myw0LjQxLS4zOSw2LjA2LS4xLDEuMzguMjQsMi0uMzMsMy44Mi0uNzZsLjc4LS4xNWEuOS45LDAsMCwxLC4xNiwwbC4yOSwwYTI0LjQyLDI0LjQyLDAsMCwwLDUtLjUxLDM3Ljg2LDM3Ljg2LDAsMCwxLTEwLTE1LjU5Yy0xLjIxLTQuMTctMS4yNy05Ljc5LDItMTIuNmEzMC4xNiwzMC4xNiwwLDAsMSw1LjY0LTMuNzdBNjUuNCw2NS40LDAsMCwxLDE0MCwxNzcuNWMtMy44MS0yLjcyLTExLjg5LTguNTMtMTIuMzEtOC44bDAsMGE1OC40NSw1OC40NSwwLDAsMC0xMi44OC00LjYyLDM0LjE0LDM0LjE0LDAsMCwwLTEyLTEsMjUuMjcsMjUuMjcsMCwwLDAtNi40MiwyLDQ0LDQ0LDAsMCwwLTQuNzEsMi40MWwtLjE1LjA5Yy0uMi0uMTQtLjQyLS4yOS0uNjQtLjQyYTIzLjQ5LDIzLjQ5LDAsMCwwLTguNTQtMyw0Ni44Myw0Ni44MywwLDAsMC0xNS41LjE4LDUyLDUyLDAsMCwwLTUuNzUsMS4zMWwtLjQyLjEzQTQyLjYzLDQyLjYzLDAsMCwwLDUyLjY0LDE2OWEuMDcuMDcsMCwwLDEtLjA5LDBBNDkuMTQsNDkuMTQsMCwwLDAsMzgsMTU4LjE3Yy02LjgzLTMuNDEtMTMuNjUtNS4wOC0xOS4yLTVhLjA4LjA4LDAsMCwxLS4wNi0uMTNjMS40My0yLjIxLDIuODYtNC40MSw0LjMxLTYuNjFsNS41My04LjVxNS03LjcyLDEwLjA3LTE1LjQ3bDAsMCwuMzctLjU3LjA2LS4wOWguMjJsLjMzLDAsMS45MS4xNWEuMDkuMDksMCwwLDEsLjA4LjA4bDAsMS41OWMtLjE2LS4wOC0uMzItLjE2LS40Ny0uMjUsMy4xNCwyLjc3LDcuMjgsNC40NSwxMS4xOSw1LjY4LDIsLjY0LDQuMTMsMS4xOSw2LjI4LDEuNjVhODcuNzcsODcuNzcsMCwwLDAsMzAuMjYsMWM4LjE4LTEuMTQsMjIuMzYtNS45MywyMi41Mi01LjkzLDEuMTMsNi42Miw0LjIxLDExLjg5LDcsMTcuNjFhLjQ5LjQ5LDAsMCwwLC4wNi4xM2wuNjMsMS4zNGEuMzcuMzcsMCwwLDAsMCwuMTFjLjQxLjg3LjgsMS43NSwxLjE3LDIuNjUsMi4zOCw1Ljc0LDguODQsMTMuMDcsMTMuNTQsMTcuNTktLjQxLTEtLjY0LTMuODktMS00LjkzYTEwMy44NSwxMDMuODUsMCwwLDEtNC43MS0xNi42OCwxNTQuMTUsMTU0LjE1LDAsMCwxLTItMTguNjNoMGMuMjEtMi43NS42My02LjQ1LDEuMDYtOC42Ny40OS0yLjUsMS4wOC01LDEuNjUtNy40NS44Ni0zLjYxLDEuNzEtNy4zMywyLjI4LTExLjE0bC0uMTguMThhLjA4LjA4LDAsMCwwLS4xMSwwLDExLDExLDAsMCwxLTMsMi4xOWwtLjQ3LjE5LS42MS4yaDBhNC4zNyw0LjM3LDAsMCwxLS40OS4xMiw2LjMxLDYuMzEsMCwwLDEtMS4zLjE0LDYuNTgsNi41OCwwLDAsMS0xLjMyLS4xNGMtMi43OS0uNTktNS0zLTYtNi42OWwtLjY4LjE4LS42OC4xNmExOC42NiwxOC42NiwwLDAsMS0xNC0yLjQ2LDE1LjExLDE1LjExLDAsMCwxLTUuODctNi41M0M5Myw3Ny45NCw5NS43MSw3MC4zOSwxMDQsNjMuOTJhMTUuMjEsMTUuMjEsMCwwLDAsNS42Ni05LjU0LDEzLjM0LDEzLjM0LDAsMCwxLDQuODEtNy43N2wwLS4wOCwwLDBhLjA4LjA4LDAsMCwwLDAtLjA5LDExLjA2LDExLjA2LDAsMCwxLDQuMy0xMy4xOGwuMjMtLjE0YTEuNjEsMS42MSwwLDAsMSwxLjg4LjEyLDEuNjgsMS42OCwwLDAsMSwuNTIsMS45LDEwLDEwLDAsMCwwLDAsNi45NC4wNy4wNywwLDAsMCwuMSwwbC4yOS0uMTNhMzUuNzUsMzUuNzUsMCwwLDEsNS4zMi0ybDEuMDYtLjI4cTEuMTQtLjI5LDIuMzQtLjQ4YTE4LjU4LDE4LjU4LDAsMCwxLDExLjkxLDEuNzEsMTYuNjUsMTYuNjUsMCwwLDEsMS41NiwxLC4wOC4wOCwwLDAsMCwuMTEsMGgwQTEyLjA1LDEyLjA1LDAsMCwwLDE0Ni45MiwzNWExLjg1LDEuODUsMCwwLDEsMS41LTEuNjlsLjA1LDBoMGEyLjA2LDIuMDYsMCwwLDEsMiwxYy4xOC4yOC4zNi41Ny41My44N0ExMy42MywxMy42MywwLDAsMSwxNDkuOTQsNTBhLjExLjExLDAsMCwwLDAsLjA4YzEuNDksNC4zMiwxLjY2LDkuMTksMS42NywxNC4yNGwuMjYsOS4zLS4xMy4wN2MuMjYsNy40MS42NiwxNCwxLjI2LDE5Ljk0YS4wNy4wNywwLDAsMCwuMDcuMDcsMi41NywyLjU3LDAsMCwxLC40LDBsLjIsMCwuMTEsMGEyLjgsMi44LDAsMCwxLC4zMS4wOWgwYTMuNDEsMy40MSwwLDAsMSwuOTEuNTIsMi41OCwyLjU4LDAsMCwxLDEsMS43MiwyLjUzLDIuNTMsMCwwLDEtLjU1LDEuODJsMCwuMDVBMy4yNiwzLjI2LDAsMCwxLDE1NCw5OWEyLjYsMi42LDAsMCwxLS4zNi4xMy4wOC4wOCwwLDAsMC0uMDYuMDhjLjA2LjUuMTIsMSwuMiwxLjQ3YS4wOC4wOCwwLDAsMCwuMDguMDdjMi0uMjQsMy43Ni41Niw0LDEuOTRhMi4wNywyLjA3LDAsMCwxLDAsLjM1YzAsMS4xMy0xLDIuMjItMi41OSwyLjc3bC0uMTQsMC0uMzEuMDktLjI0LjA2YS4wOC4wOCwwLDAsMC0uMDYuMDljLjA2LjQ0LjEzLjg3LjIsMS4zYS4wOC4wOCwwLDAsMCwuMS4wNmwuMjIsMGE3LjIzLDcuMjMsMCwwLDEsNSwuNjUsMi4xNSwyLjE1LDAsMCwxLDEsMS40NmMuMjUsMS41OS0xLjU1LDMuMzUtNC4yNiw0LjMxbC0uNTMuMTctLjIxLjA2YS4wOC4wOCwwLDAsMC0uMDYuMDljLjEuNDUuMTkuODguMjksMS4zMiwyLjE4LS40OSw0LjIxLS4zMSw1LjM0LjQ2YTIuMDgsMi4wOCwwLDAsMSwuOTQsMS40NCwxLjkzLDEuOTMsMCwwLDEsMCwuMjRjMCwxLjYtMS45NCwzLjM0LTQuNzUsNC4yNi4xLjQzLjIyLjg2LjM0LDEuMjgsMS45NC0uNDEsMy42Ny4yMSw0LjA4LDEuNTFhMiwyLDAsMCwxLC4wOC41NCwyLjQ1LDIuNDUsMCwwLDEtLjI4LDEuMDgsNC42Myw0LjYzLDAsMCwxLTIuMzYsMS45My4wOS4wOSwwLDAsMC0uMDUuMSwzOS40NywzOS40NywwLDAsMCwzLjI0LDguMDdjMi41NCw0LjU4LDUuNjksNy44Myw5LjM1LDkuNjZhOC41Niw4LjU2LDAsMCwwLDUuMDkuOTUsNS4xMiw1LjEyLDAsMCwwLDItLjc4bC4wNiwwYTUuMjksNS4yOSwwLDAsMCwyLjM4LTMuMTJjLjkxLTMuMS4xLTYuNC0uNjktOS41OC0uMjItLjg5LS40My0xLjc3LS42Mi0yLjY1LTEuODUtOC44OS0zLjYtMTguMDktNS4zMi0yNy44NGE2Ljg3LDYuODcsMCwwLDEtMSwuMDljLTEuNjQsMC0zLS43Mi0zLjIxLTEuODlzLjctMi40NSwyLjI4LTMuMTNsLjI5LS4xMS40My0uMTQuMjctLjA3LS4yMS0xLjI3LS4yOCwwYTAsMCwwLDAsMSwwLDBjLS4zMywwLS42NSwwLTEsMGExMS43MiwxMS43MiwwLDAsMS0xLjkzLS4xNWwtLjYxLS4xNC0uNDQtLjEzTDE2OC4wNyw5MmwuMTctLjE5LjI0LS4yMywwLDBhOS4wOSw5LjA5LDAsMCwxLDQuMDYtMS43NHMuMDcsMCwuMDYtLjA4bC4yOS0uMDZjLS4wNy0uNDQtLjE0LS44OS0uMjItMS4zM2wtLjI3LDBhLjA2LjA2LDAsMCwxLDAsMCwxMiwxMiwwLDAsMS0xLjMyLjA4LDEwLjEzLDEwLjEzLDAsMCwxLTEuMjUtLjA3bC0uMzItLjA1Yy0uMTYsMC0uMzMtLjA2LS40OC0uMDlsLS40Mi0uMTEtLjIzLS4wNy0uNTItLjJhMi43NiwyLjc2LDAsMCwxLTEuODMtMiwzLDMsMCwwLDEsMS41OS0yLjcyLDEuMTQsMS4xNCwwLDAsMSwuMjMtLjE1LDEwLDEwLDAsMCwxLDMuNDctMS4yNC4xLjEsMCwwLDAsLjA3LS4wOGwuMjgsMGMtLjA2LS40Ni0uMTItLjkyLS4xOS0xLjM5bC0uNTMsMGE2LjYyLDYuNjIsMCwwLDEtMy0uNjgsMi45NCwyLjk0LDAsMCwxLTEuNzktMi4zNGMtLjExLTEuNTksMS40LTMsMy42LTMuNTNsLjQzLS4wOS40OC0uMDgtLjE4LTEuNTloLS4wOWMtMiwwLTMuNTktMS0zLjg3LTIuNTdzMS0zLjI4LDMtMy45MmwuMzUuMDhzLS4wOC0uMDYtLjIyLS4xMWwuMDgsMHEtLjQ5LTQuOTItLjktOS45M2MwLS4xNC0uMTEtMS0uMjUtMi4yNmwtLjA2LTYuM0E1Ni4xNiw1Ni4xNiwwLDAsMSwxNjksMzMuNzlzLS43Ni0uMjItLjc4LS4yNGExNC43NywxNC43NywwLDAsMS00LjYzLTcuODIsMTIuODgsMTIuODgsMCwwLDEsLjc0LTYuMjljLjE0LS4zOC4zLS43NC40Ny0xLjFhMS44NywxLjg3LDAsMCwxLC40Ny0uNmgwYTEuNzUsMS43NSwwLDAsMSwxLjExLS4yM0ExLjgzLDEuODMsMCwwLDEsMTY4LDE4LjkyYTExLjQ2LDExLjQ2LDAsMCwwLDMuNDksNiwuMDguMDgsMCwwLDAsLjExLDBsLjE4LS4xNi4wNS4wNWExNC4xLDE0LjEsMCwwLDEsMS4zOS0xLjE3bC41Ny0uNC40MS0uMjZjNi4yOS0zLjc3LDE0LjExLTIuMjUsMTguNi0uODVhLjA3LjA3LDAsMCwwLC4xLS4wNiw3LjQ1LDcuNDUsMCwwLDAsLjE2LTEuMTRsMC0uMzJhOS41Niw5LjU2LDAsMCwwLTEuMTEtNSwxLjU3LDEuNTcsMCwwLDEtLjE5LS45MSwxLjU1LDEuNTUsMCwwLDEsLjQyLTEsMS41OCwxLjU4LDAsMCwxLDEuOC0uMzhsLjE5LjA5YTEwLjQ5LDEwLjQ5LDAsMCwxLDUuODcsMTEuODcuMDguMDgsMCwwLDAsMCwuMDksMTIuNzMsMTIuNzMsMCwwLDEsNS43NCw2LjgyLDE0LjM4LDE0LjM4LDAsMCwwLDYuNiw4LjIyYzguNyw1LDEyLjI5LDExLjc5LDEwLjEyLDE5LjA3YTE0LjM1LDE0LjM1LDAsMCwxLTQuNjksNywyMC43MSwyMC43MSwwLDAsMS0xLjczLDEuMjdsLS4wNywwYTE3LjUyLDE3LjUyLDAsMCwxLTkuNSwyLjc2LDE4LjY0LDE4LjY0LDAsMCwxLTIuNjYtLjJsMCwuMjEtLjE0LDBhLjA2LjA2LDAsMCwwLS4wOC4wNiw5LjE1LDkuMTUsMCwwLDEtMy40OCw2LjMzLjU0LjU0LDAsMCwxLS4xNi4xLDUuODMsNS44MywwLDAsMS0uOTEuNDMsNi4yNSw2LjI1LDAsMCwxLTIuMDkuMzZoLS40MWE4LjIyLDguMjIsMCwwLDEtMy4xNi0uODhjMCwuMTEuMDcuMjIuMS4zNGgwYS4wOC4wOCwwLDAsMC0uMTEuMDljMS44OSw2LjQ2LDQuMDksMTMuODQsNi41OSwyMWEuNzcuNzcsMCwwLDEsMCwuNTQuMDYuMDYsMCwwLDAsMCwuMDZsMS4yMSwyLjk0Yy44NiwyLjEsMS43NSw0LjIyLDIuNjQsNi4zNSwxLjcsNC40MSwzLjMyLDguNTcsNC45NCwxMi42My44NCwyLjExLDEuNjksNC4yMSwyLjU1LDYuMzIsMS4xOSwzLjM5LDIuMjQsNi44LDMuMSwxMC4yMWwwLC4xMmMwLC4xNy4xLjM1LjE0LjUzbC4yOS0uNDQsMCwuMTJhMTE5LjkyLDExOS45MiwwLDAsMCwxMC0xOC40Nyw1LDUsMCwwLDEtMS41Ny0xLjE5LDIuMzUsMi4zNSwwLDAsMS0uNi0yLjI2LDIuMTksMi4xOSwwLDAsMSwxLjQ5LTEuMzcsMSwxLDAsMCwxLC4yNS0uMDcsNC44NCw0Ljg0LDAsMCwxLDIuMTQsMCwuMDcuMDcsMCwwLDAsLjA4LDBsLjEzLDAsLjU0LTEuNTdjLTMuMzEtMS4xNC01LjM3LTMuMjItNC44Ni01YTIsMiwwLDAsMSwuMzMtLjY1bC4xLS4xMi4xNy0uMTZhNS4xNyw1LjE3LDAsMCwxLDMuMy0uOTIsMjksMjksMCwwLDEsMy4wOC41OGMuMzctLjI2LS4xOC0uNTYuMi0uODEuMDgtLjMyLjMxLTEsLjM5LTEuMzhhMS41NSwxLjU1LDAsMCwwLS40LS4yMyw5Ljc5LDkuNzksMCwwLDEtMy4yNi0xLjkxYy0xLjEyLS44OS0xLjA4LTEuMzItLjg3LTIuMjcuMzctMS43MiwyLjY4LTIuMjMsNS44Ni0xLjc0LjA4LS40Mi4yLTEuMzEuMjktMS43NGE1LjU5LDUuNTksMCwwLDEtMy4yMS0yLjI5Yy0uNDMtLjY2LS42OC0xLS41NC0xLjdzLjM1LS44NiwxLTEuMjlhNS42NCw1LjY0LDAsMCwxLDMuNjktLjg1QTEuNjYsMS42NiwwLDAsMCwyMzMsOTBjLjEtLjY1LjE1LTEuNTMuMjQtMi4xOGExLDEsMCwwLDAtLjM1LDBzMCwwLDAsMGMtMi0uNDgtMy4zNC0xLjkxLTMuMjEtMy41czItMyw0LjE4LTNjLjYxLTQuNDQsMS4xNy05LDEuNjQtMTMuNjMsMCwwLDAsMCwwLS4wNi4yLTIuOTQsMS4xOC0xNi42MSwyLjgxLTIxLjUxYTEzLDEzLDAsMCwxLS44Mi0xNC42MiwxMS42MSwxMS42MSwwLDAsMSwuNjctMSwxLjc5LDEuNzksMCwwLDEsLjY1LS41NWwuMSwwYTEuNjcsMS42NywwLDAsMSwuOTQtLjA4LDEuODMsMS44MywwLDAsMSwxLjQ4LDEuNzMsMTEuNDgsMTEuNDgsMCwwLDAsMi4zNiw2LjU0LjA5LjA5LDAsMCwwLC4xMSwwbC4wNywwYTExLjU0LDExLjU0LDAsMCwxLDEuNDYtLjgxLDE0Ljc0LDE0Ljc0LDAsMCwxLDEuOTEtLjc4bC45LS4yN2ExMi4xMywxMi4xMywwLDAsMSwxLjY3LS4zNmMuMjIsMCwuNDUtLjA3LjY3LS4wOSw1LjY5LS42NCwxMS4yNywxLjYxLDE0LjY3LDMuNGEuMDguMDgsMCwwLDAsLjExLDAsOS40Niw5LjQ2LDAsMCwwLC4yNC02LjUzLDEuNjQsMS42NCwwLDAsMSwuNTktMS44MiwxLjU1LDEuNTUsMCwwLDEsMS44MywwbC4xOC4xMmExMC42MiwxMC42MiwwLDAsMSwzLjY0LDEyLjczLjA4LjA4LDAsMCwwLDAsLjA5LDEyLjY3LDEyLjY3LDAsMCwxLDQuNDIsNy43MywxNC40NSwxNC40NSwwLDAsMCw1LDkuMjdjNy42Niw2LjQ5LDEwLDEzLjc5LDYuNTUsMjAuNTdhMTQuNSwxNC41LDAsMCwxLTUuODYsNiwyMC40OSwyMC40OSwwLDAsMS0zLjU5LDEuNTVjLS40MS4xMy0uODIuMjQtMS4yMy4zNC0uMjQsMC0uNDguMTEtLjcyLjE1YTE1LDE1LDAsMCwxLTIuMTEuMjdjLS40NCwwLS44Ny4wNi0xLjMxLjA2YTE4LjU5LDE4LjU5LDAsMCwxLTUuNjYtLjloMGEuMDkuMDksMCwwLDAtLjEsMGMtMS4xLDMuMTktMy4wNyw1LjI5LTUuNSw1LjkyYTIuMjEsMi4yMSwwLDAsMS0uMzUuMDhoMGwtLjEzLDBhNS44Niw1Ljg2LDAsMCwxLTEsLjA5LDUuNjksNS42OSwwLDAsMS0xLjQ5LS4xOSw5Ljg2LDkuODYsMCwwLDEtMy45Mi0yLjMxYy0uMTktLjE2LS4zOC0uMzItLjU4LS40Ny4wOCw0LjI3LDEuMywxNi41NS0uNDMsMzEuMjRMMjQ4LDE1MmwwLDBoMGMtLjEzLjM5LDUuMzktNS41MSw5LjU3LTEwLjgsNS02LjM2LDkuNDEtMjMuNjgsOS40Ny0yMy42OGE3MS41OSw3MS41OSwwLDAsMCwyMyw3LDg3Ljc3LDg3Ljc3LDAsMCwwLDMwLjI2LTFjMi4xNS0uNDYsNC4yNS0xLDYuMjgtMS42NSwzLjktMS4yMywxMy40NC02LjUzLDEzLjUxLTYuNTMuMTIuMTksNy41LDEwLDEwLjg2LDE1LjEyLDEuODQsMi44MywzLjU4LDUuNiw1LjQyLDguNDNBMzcuMTIsMzcuMTIsMCwwLDEsMzYwLjI2LDE0NloiIGNsYXNzPSJjbHMtMyIvPjwvZz48ZyBkYXRhLW5hbWU9IlN0b21hY2ggLSBTaGFkaW5nIiBpZD0iU3RvbWFjaF8tX1NoYWRpbmciPjxwYXRoIGQ9Ik0yMjQuMjcsMTY3YTYuMTgsNi4xOCwwLDAsMC0uMDksNS4zNGMxLjUxLDIuNzYsNS42NSwzLDguMzEsMS4zNnM0LjE1LTQuNjcsNS40Mi03LjU0YTEzOC43OCwxMzguNzgsMCwwLDAsOS43MS0zMiwxNDEuNjksMTQxLjY5LDAsMCwwLDEuODgtMzMuNmMtLjI3LTQuMjYtLjgzLTguNDgtMS4zNC0xMi43YTc5Ljc1LDc5Ljc1LDAsMCwwLTEuNjUtOC41M2MtLjE3LS43Mi0uMzQtMS40NC0uNS0yLjE2LS4xMi0uNTItLjE1LTEuNTktLjUtMi0uOTQtMS4wNi0xLC43My0xLDEuMjcsMCwxLjU2LS4wOCwzLjEyLS4xMyw0LjY4YTI5NC40MywyOTQuNDMsMCwwLDEtMywzNy4yOGMtLjA3LjQ5LS4xNSwxLS4yNCwxLjQ4YTEzNS44MSwxMzUuODEsMCwwLDEtOS41MSwzM2MtMS4wOCwyLjQ0LTIuMjksNC44Mi0zLjU2LDcuMThBNjcuNjEsNjcuNjEsMCwwLDAsMjI0LjI3LDE2N1oiIGNsYXNzPSJjbHMtNCIvPjxwYXRoIGQ9Ik0xNjcuMDUsMTY3LjkyYTEyLjc3LDEyLjc3LDAsMCwxLTcuNSwxMS44OSwyLjI1LDIuMjUsMCwwLDEtLjY0LjIsMy4xMywzLjEzLDAsMCwxLS4zNi4xOWMtMy4xNCwxLjM3LTYuODQuMDYtOS41MS0yLjQzcy00LjQ4LTYtNi05LjUzYTExNS4yMywxMTUuMjMsMCwwLDEtOS42LTQxLjczLDExOC42LDExOC42LDAsMCwxLC44NC0yMC4xMWMuMjgtMi4yLjY0LTQuNCwxLTYuNTlhOTMuODMsOTMuODMsMCwwLDEsMi4zMy05LjQyYy40Ni0xLjU1LDEuMDctMy4wNywxLjUtNC42MmEzMC40OCwzMC40OCwwLDAsMCwuODctNC42NWMuMTMtMS4wOS4yMi0yLjE5LjMyLTMuMjgsMCwuMTcuNTYuODUuNjUsMS4wNmE0LjcyLDQuNzIsMCwwLDEsLjMzLDEuNDRjMCwuNTkuMDgsMS4xOC4xMSwxLjc3LjA4LDEuMjQuMSwyLjQ5LjEsMy43MywwLDMuMjMsMCw2LjQ2LS4wOSw5LjY5YTE4NS41NSwxODUuNTUsMCwwLDAsLjQ4LDIwLjgzYzEsMTAuNTIsNi4wOCwyNywxMS42NywzNS40OSwxLjgzLDIuNzYsMy40Miw2LjM0LDUuODYsOC41MkMxNjIsMTYyLjcsMTY3LDE2NC4wNywxNjcuMDUsMTY3LjkyWiIgY2xhc3M9ImNscy00Ii8+PHBhdGggZD0iTTIxNi42NiwxNjMuMmMtLjU1LDIuODMtMi4xNyw1LjExLTUuODYsNS4xMWE4LjQyLDguNDIsMCwwLDEtNi43NS00Yy0yLjktNC4zOC0yLjE2LTEwLjA3LTIuNDItMTUuMDYsMC0xMy0yLjM4LTI1Ljc3LTUuNzMtMzguMjQtMS43NC02LjQ2LTMuNzYtMTIuODQtNS44Mi0xOS4ycS0xLjM3LTQuMjUtMi43Ni04LjQ4YTQ4LjY5LDQ4LjY5LDAsMCwxLTIuMTgtNi45MmMtLjM1LTIuMDgtLjU4LTYuNTQsMS44NC02LjU2LDEuMzMsMCwzLjI1LDIuNDQsNC44MSw1LjgyYTExMS4wOSwxMTEuMDksMCwwLDEsNSwxNC41M2MxLjIxLDQsMi40Myw3LjkzLDQsMTEuNzdDMjA1LjUsMTEzLjQ5LDIxMSwxMjUuNDUsMjE0LDEzNy41YzEuNSw2LC44NCwxMiwyLjI0LDE3Ljk0QTE5LjgyLDE5LjgyLDAsMCwxLDIxNi42NiwxNjMuMloiIGNsYXNzPSJjbHMtNCIvPjxwYXRoIGQ9Ik0yMDguODgsMTk2LjU1YzAsMS4xMSwwLDIuMjEtLjEzLDMuMjlhNjUuMzUsNjUuMzUsMCwwLDEtMjcuNiwyLjg1LDU1LjI1LDU1LjI1LDAsMCwxLTExLTIuNDhjLS4xMS0xLjItLjE2LTIuNDItLjE2LTMuNjYsMC0xNS45MSw4LjcyLTI4Ljc5LDE5LjQ2LTI4Ljc5UzIwOC44OCwxODAuNjQsMjA4Ljg4LDE5Ni41NVoiIGNsYXNzPSJjbHMtNCIvPjxnIGNsYXNzPSJjbHMtNSI+PGVsbGlwc2UgdHJhbnNmb3JtPSJ0cmFuc2xhdGUoMjUuOTYgNDIyLjU0KSByb3RhdGUoLTg3LjA4KSIgcnk9IjEuMDgiIHJ4PSIxLjg5IiBjeT0iMTk3LjYxIiBjeD0iMjM1LjMxIiBjbGFzcz0iY2xzLTIiLz48L2c+PGcgY2xhc3M9ImNscy01Ij48ZWxsaXBzZSB0cmFuc2Zvcm09InRyYW5zbGF0ZSgtNTAuMjQgODYuMykgcm90YXRlKC0xOSkiIHJ5PSIxLjQ2IiByeD0iMC44NCIgY3k9IjE5My4yOCIgY3g9IjIzMi43NSIgY2xhc3M9ImNscy0yIi8+PC9nPjxnIGNsYXNzPSJjbHMtNSI+PGVsbGlwc2UgdHJhbnNmb3JtPSJ0cmFuc2xhdGUoLTM1LjIyIDM1Ni44Mikgcm90YXRlKC03MC43NykiIHJ5PSIwLjg0IiByeD0iMS40NiIgY3k9IjIwMy4yMSIgY3g9IjIzMy41NyIgY2xhc3M9ImNscy0yIi8+PC9nPjwvZz48ZyBkYXRhLW5hbWU9IkhpZ2hsaWdodHMgLSBXaGl0ZSIgaWQ9IkhpZ2hsaWdodHNfLV9XaGl0ZSI+PHBhdGggZD0iTTI2NS44NSw0MC4xNGE1LjczLDUuNzMsMCwwLDAsMSwxLDEyLjYzLDEyLjYzLDAsMCwwLDMuNzMsMS42NiwzLjEzLDMuMTMsMCwwLDAsLjg1LjE3LDEsMSwwLDAsMCwuNzgtLjMzLDEuNTQsMS41NCwwLDAsMCwuMTMtMS4xNmMtLjMtMi0uNDktNC40My0xLjM5LTYuMjRhOC44NSw4Ljg1LDAsMCwwLTMtMy44NCwzLjksMy45LDAsMCwwLTEuNTctLjUzYy0uMjYuMDctLjY2LjM3LS43LjY0YTguMjksOC4yOSwwLDAsMCwuMzksMS41LDEyLDEyLDAsMCwxLC4yMywzLjc4Yy0uMDUuMzMtLjM1Ljg0LS4zNywxLjE3QzI2NS44NywzOC44NywyNjUuMjgsMzkuNDEsMjY1Ljg1LDQwLjE0WiIgY2xhc3M9ImNscy02Ii8+PHBhdGggZD0iTTIzNi40NCwzOS4yNGMwLDEuNDgsMSwyLjQ5LDEuMjgsNCwuMjMsMS4wOS41MSwyLjE2LjgzLDMuMjJhMy4zMywzLjMzLDAsMCwwLDIuMTkuOTUsNSw1LDAsMCwwLDMuNDQtMS4yLDQuMjgsNC4yOCwwLDAsMCwxLjUzLTQuNTQsMywzLDAsMCwwLS41OS0xLjA1LjkzLjkzLDAsMCwwLS4xNC0uMTRjLS4yNy0uMjEtLjU3LS40LS44NS0uNmEzLjI4LDMuMjgsMCwwLDEtMS4wNy0xLjA2LDQ1Ljc2LDQ1Ljc2LDAsMCwxLTIuMTgtNi4zMiwxMS4zOCwxMS4zOCwwLDAsMC0uNDMtMmMtLjE3LS4zMS0xLjUyLjQ4LTEuODIuNTJzLS4yMi44OC0uMzcsMS4xN0ExNy4xNiwxNy4xNiwwLDAsMCwyMzYuNDQsMzkuMjRaIiBjbGFzcz0iY2xzLTYiLz48cGF0aCBkPSJNMTkzLjIyLDIzYy4zLjM4LDEuMjEuMTksMS41OS40N2E5LjQyLDkuNDIsMCwwLDAsMiwuODhjLjY3LjI3LjY0LjYzLDEuMzMuODQuMjkuMDkuNTYuMzIuODcuMzJzLjY2LjIzLjg1LDBhMS41LDEuNSwwLDAsMCwuMTUtMS4xOGMtLjMxLTItLjMyLTQuMTEtMS4yNi01Ljk0YTEyLjIsMTIuMiwwLDAsMC00LjE0LTQuMTZjLS4yNC0uMTYtLjUtLjc2LS44LS42OXMtLjcuMzgtLjczLjY1YTcsNywwLDAsMCwuMzksMS41MywyNS4zNCwyNS4zNCwwLDAsMSwuNjEsNUMxOTQsMjEuNzIsMTkyLjYzLDIyLjI5LDE5My4yMiwyM1oiIGNsYXNzPSJjbHMtNiIvPjxwYXRoIGQ9Ik0xMjAuNzksNDAuNTdjLS4wOS0xLjYyLS44MS0zLjIyLS41Ny00LjgzYTcsNywwLDAsMCwuMzktMS41M2MwLS4yNy0uNDUtLjU4LS43My0uNjVzLS41Ni41My0uOC42OWExMSwxMSwwLDAsMC0zLjYzLDQuMiwxNS4xNSwxNS4xNSwwLDAsMC0uNzMsMS43MS42OS42OSwwLDAsMSwuMzQuNTcsMTIuNDEsMTIuNDEsMCwwLDEtLjIsMi43OWwwLDB2MWMwLC4xNiwwLC4zMiwwLC40N2wuMDkuMDhjLjIyLjE2LjQ1LjMxLjY2LjQ4bDAsLjA1YTEyLjI5LDEyLjI5LDAsMCwwLDMuOC0xLjY1LDUuNDEsNS40MSwwLDAsMCwxLTFDMTIxLjA2LDQyLjI5LDEyMC44NSw0MS41MSwxMjAuNzksNDAuNTdaIiBjbGFzcz0iY2xzLTYiLz48cGF0aCBkPSJNMTY0LjYzLDI3LjQyYy4zNiwxLjM1LDEuNDgsMi4wNywyLjExLDMuMzYuNDYuOTUsMSwxLjg3LDEuNTEsMi43N2EzLjQ3LDMuNDcsMCwwLDAsMi4zNC4zOCw1LjEzLDUuMTMsMCwwLDAsMy4wOC0xLjksMy45MywzLjkzLDAsMCwwLC41LTQuNTQsMi43MSwyLjcxLDAsMCwwLS44LS44MiwxLDEsMCwwLDAtLjE3LS4xYy0uMy0uMTMtLjY0LS4yNS0xLS4zNmEzLjM1LDMuMzUsMCwwLDEtMS4yNy0uNzMsNDIuNzQsNDIuNzQsMCwwLDEtMy40OS01LjMyLDEwLjU5LDEwLjU5LDAsMCwwLS44NS0xLjcyYy0uMjMtLjI0LTEuMzguNzktMS42NS45MXMwLC44NS0uMTEsMS4xNkExNS41OSwxNS41OSwwLDAsMCwxNjQuNjMsMjcuNDJaIiBjbGFzcz0iY2xzLTYiLz48cGF0aCBkPSJNMTUxLDQyLjQzYTI0LjQ4LDI0LjQ4LDAsMCwxLS42NSw0LjYyYy0uMjYsMS4xMi0uNTcsMi4yNC0uOTIsMy4zNGEzLjc5LDMuNzksMCwwLDEtMi40MiwxLDUuNjMsNS42MywwLDAsMS0zLjc3LTEuMjYsNC4zMyw0LjMzLDAsMCwxLTEuNjctNC43MywzLjIxLDMuMjEsMCwwLDEsLjY2LTEuMDguNTcuNTcsMCwwLDEsLjE2LS4xNWMuMjktLjIyLjYyLS40Mi45My0uNjNhMy41OSwzLjU5LDAsMCwwLDEuMTgtMS4wOWMxLTEuOTMsMi42My0zLjUxLDMuMzEtNS41N2ExMS45MSwxMS45MSwwLDAsMSwuNDgtMiwxLjI4LDEuMjgsMCwwLDEsMS4xLS40NWMuMzUuMDYuMjUuOTEuNCwxLjIyQTE0LjQ1LDE0LjQ1LDAsMCwxLDE1MSw0Mi40M1oiIGNsYXNzPSJjbHMtNiIvPjwvZz48ZyBpZD0iT3V0bGluZSI+PHBhdGggZD0iTTE0OS42Miw0OS45djBhMi4zNSwyLjM1LDAsMCwxLS43MywxLjMxLjg4Ljg4LDAsMCwxLS45LDAsMS45MywxLjkzLDAsMCwxLS41My0uNDJBMy4yOCwzLjI4LDAsMCwwLDE0OS42Miw0OS45WiIgY2xhc3M9ImNscy02Ii8+PHBhdGggZD0iTTEzMy4xMyw1Ny4zOGExMi41NiwxMi41NiwwLDAsMS0uMTcsMmMtLjQ4LDIuOTQtMiw1LjE2LTQsNS40NmExLjg5LDEuODksMCwwLDEtLjQ3LjA2Yy0yLjU0LDAtNC42MS0zLjM1LTQuNjEtNy40N3MyLTcuNDksNC41OC03LjVTMTMzLjExLDUzLjI0LDEzMy4xMyw1Ny4zOFoiIGNsYXNzPSJjbHMtNiIvPjxwYXRoIGQ9Ik0xMjguNTcsNjUuMzdoMGMtMi44LDAtNS4xLTMuNTgtNS4xLThzMi4yMi04LDUuMDgtOGgwYzIuODUsMCw1LjEsMy41LDUuMTIsOGgwYTEyLjEyLDEyLjEyLDAsMCwxLS4xOCwyYy0uNTEsMy4xOS0yLjI3LDUuNTUtNC4zNiw1Ljg4QTIuMTIsMi4xMiwwLDAsMSwxMjguNTcsNjUuMzdabTAtMWEyLjA5LDIuMDksMCwwLDAsLjM1LDBjMS43MS0uMjcsMy4xMy0yLjMsMy41OC01LjA2YTEyLjY3LDEyLjY3LDAsMCwwLC4xNi0xLjg5YzAtMy44NS0xLjg2LTctNC4xMi03aDBjLTIuMjYsMC00LjA5LDMuMTUtNC4wOCw3czEuODksNyw0LjExLDdaIiBjbGFzcz0iY2xzLTIiLz48cGF0aCBkPSJNMTIxLjY3LDU2LjIxYTcuMjUsNy4yNSwwLDAsMSwwLDFjLS4yNSwyLjYyLTEuNDgsNC43Mi0zLDUuMzJhMi4zNSwyLjM1LDAsMCwxLS45LjE2Yy0yLjIyLDAtNC0yLjkxLTQtNi41MnMxLjc4LTYuNTIsNC02LjUzUzEyMS42Nyw1Mi42MSwxMjEuNjcsNTYuMjFaIiBjbGFzcz0iY2xzLTYiLz48cGF0aCBkPSJNMTE3LjY4LDYzLjI0aDBjLTIuNTMsMC00LjUxLTMuMDgtNC41Mi03YTkuNDcsOS40NywwLDAsMSwxLjI0LTQuODcsMy45MywzLjkzLDAsMCwxLDMuMjYtMi4xNmgwYzIuNTMsMCw0LjUyLDMuMDgsNC41Miw3aDBhNi40Nyw2LjQ3LDAsMCwxLS4wNiwxLjExYy0uMjYsMi43OS0xLjU4LDUtMy4zNiw1LjcyQTIuODYsMi44NiwwLDAsMSwxMTcuNjgsNjMuMjRabTAtMWEzLjUxLDMuNTEsMCwwLDAsLjcyLS4xM2MxLjQtLjU0LDIuNDktMi41MSwyLjcyLTQuOWE2LjI1LDYuMjUsMCwwLDAsMC0xaDBjMC0zLjI2LTEuNjEtNi0zLjUyLTZoMGEzLDMsMCwwLDAtMi40MSwxLjY4LDguNTMsOC41MywwLDAsMC0xLjA5LDQuMzVjMCwzLjI3LDEuNjIsNiwzLjUzLDZaIiBjbGFzcz0iY2xzLTIiLz48cGF0aCBkPSJNMTIxLjYyLDU3LjI2Yy0uMjUsMi42Mi0xLjQ4LDQuNzItMyw1LjMyYTQuNTUsNC41NSwwLDAsMS0xLjE0LTMuMmMwLTIuMDYsMS0zLjczLDIuMjgtMy43NEEyLjI4LDIuMjgsMCwwLDEsMTIxLjYyLDU3LjI2WiIgY2xhc3M9ImNscy0yIi8+PHBhdGggZD0iTTEzMyw1OS4zNWMtLjQ4LDIuOTQtMiw1LjE2LTQsNS40NmE1LjY5LDUuNjksMCwwLDEtLjkzLTMuMjVjMC0yLjM3LDEuMTctNC4yOCwyLjYyLTQuMjlDMTMxLjY2LDU3LjI3LDEzMi41MSw1OC4xLDEzMyw1OS4zNVoiIGNsYXNzPSJjbHMtMiIvPjxlbGxpcHNlIHRyYW5zZm9ybT0idHJhbnNsYXRlKDQuNDMgMTYxLjUyKSByb3RhdGUoLTc4LjE4KSIgcnk9IjEuNDYiIHJ4PSIyLjI2IiBjeT0iNzguMDMiIGN4PSIxMDEuNjIiIGNsYXNzPSJjbHMtMiIvPjxwYXRoIGQ9Ik0xMDEuMzUsODAuNzZhMS41MywxLjUzLDAsMCwxLS4zLDAsMS43OCwxLjc4LDAsMCwxLTEuMjQtMS4xNywzLjU2LDMuNTYsMCwwLDEtLjExLTEuOTNjLjMyLTEuNTEsMS40MS0yLjUzLDIuNDgtMi4zaDBjMS4wOC4yMywxLjY4LDEuNTksMS4zNiwzLjFhMy40OCwzLjQ4LDAsMCwxLS44OCwxLjczQTEuODcsMS44NywwLDAsMSwxMDEuMzUsODAuNzZabS41NC00LjQ2Yy0uNDQsMC0xLC41OS0xLjIxLDEuNTNhMi40MSwyLjQxLDAsMCwwLC4wNywxLjM3Yy4wNy4xOC4yMy40OS41MS41NWEuODMuODMsMCwwLDAsLjY5LS4zLDIuNDMsMi40MywwLDAsMCwuNjEtMS4yMmMuMjEtMS0uMTQtMS44My0uNTgtMS45MloiIGNsYXNzPSJjbHMtMiIvPjxlbGxpcHNlIHRyYW5zZm9ybT0idHJhbnNsYXRlKDEuNzQgMTY0Ljg1KSByb3RhdGUoLTc1LjgpIiByeT0iMi4wOCIgcng9IjMuMjMiIGN5PSI4MS4zMSIgY3g9IjEwNi43NSIgY2xhc3M9ImNscy0yIi8+PHBhdGggZD0iTTEwNi4zLDg1YTEuODIsMS44MiwwLDAsMS0uNDYtLjA2Yy0xLjQtLjM1LTIuMS0yLjIyLTEuNTktNC4yNWE0LjgzLDQuODMsMCwwLDEsMS4zLTIuMywyLjEsMi4xLDAsMCwxLDMuNjYuOTMsNC43MSw0LjcxLDAsMCwxLDAsMi42NEMxMDguOCw4My43NCwxMDcuNTYsODUsMTA2LjMsODVabS45LTYuMzRhMS41MSwxLjUxLDAsMCwwLTEsLjQ2LDMuOCwzLjgsMCwwLDAtMSwxLjgyYy0uMzYsMS40MywwLDIuODIuODYsM3MxLjg0LS44MiwyLjItMi4yNmEzLjc1LDMuNzUsMCwwLDAsMC0yLjA4LDEuMzcsMS4zNywwLDAsMC0uODQtMWgwQS43OC43OCwwLDAsMCwxMDcuMiw3OC42NFoiIGNsYXNzPSJjbHMtMiIvPjxjaXJjbGUgcj0iMC42OSIgY3k9IjcwLjMiIGN4PSIxMzEuMTQiIGNsYXNzPSJjbHMtMiIvPjxjaXJjbGUgcj0iMS4wOCIgY3k9IjcxLjM4IiBjeD0iMTM1LjUxIiBjbGFzcz0iY2xzLTIiLz48Y2lyY2xlIHI9IjEuMDgiIGN5PSI3NC40MiIgY3g9IjEzMS44OCIgY2xhc3M9ImNscy0yIi8+PHBhdGggZD0iTTI1My43LDUzLjI5YTExLjU2LDExLjU2LDAsMCwwLC4wOSwxLjg4Yy4zNCwyLjgyLDEuNzUsNSwzLjU1LDUuMzVhMi4yNCwyLjI0LDAsMCwwLC40NC4wN2MyLjQyLjEsNC41Mi0zLDQuNjgtNi45M3MtMS42Ni03LjIxLTQuMDgtNy4zMVMyNTMuODgsNDkuMzUsMjUzLjcsNTMuMjlaIiBjbGFzcz0iY2xzLTYiLz48cGF0aCBkPSJNMjU3LjksNjEuMDloLS4xNGEyLjcyLDIuNzIsMCwwLDEtLjU2LS4wOWMtMS45NS0uMzktMy41My0yLjcxLTMuOTEtNS43N2ExMi41MiwxMi41MiwwLDAsMS0uMDktMmgwYy4xOS00LjIxLDIuNC03LjQzLDUuMDctNy40M2guMTNjMi43NC4xMiw0Ljc0LDMuNTYsNC41Niw3LjgzUzI2MC41OCw2MS4wOSwyNTcuOSw2MS4wOVptLTMuNy03Ljc4YTExLjc2LDExLjc2LDAsMCwwLC4wOCwxLjhjLjMzLDIuNjMsMS41OSw0LjYxLDMuMTYsNC45MmExLjM0LDEuMzQsMCwwLDAsLjM2LjA2aC4wOWMyLjA3LDAsMy45My0yLjkyLDQuMDctNi40NXMtMS40Ni02LjctMy42LTYuOFMyNTQuMzYsNDkuNjYsMjU0LjIsNTMuMzFaIiBjbGFzcz0iY2xzLTIiLz48cGF0aCBkPSJNMjY0LjY1LDUyLjYxYTYuNjMsNi42MywwLDAsMCwwLDFjLjEzLDIuNSwxLjIyLDQuNTUsMi42OSw1LjE3YTIuMjUsMi4yNSwwLDAsMCwuODUuMmMyLjExLjA5LDMuOTMtMi42Miw0LjA3LTZzLTEuNDQtNi4yOC0zLjU1LTYuMzdTMjY0Ljc5LDQ5LjE4LDI2NC42NSw1Mi42MVoiIGNsYXNzPSJjbHMtNiIvPjxwYXRoIGQ9Ik0yNjguMzEsNTkuNDhoLS4xMmEyLjY3LDIuNjcsMCwwLDEtMS0uMjRjLTEuNjctLjcxLTIuODUtMi45MS0zLTUuNjFhNyw3LDAsMCwxLDAtMWMuMTUtMy43LDIuMTEtNi41Myw0LjQ4LTYuNTNoLjEyYzIuNDIuMSw0LjE5LDMuMTIsNCw2Ljg5UzI3MC42OCw1OS40OCwyNjguMzEsNTkuNDhabS4zMi0xMi40MmMtMS43NywwLTMuMzYsMi41Mi0zLjQ4LDUuNTdoMGE3LjE4LDcuMTgsMCwwLDAsMCwuOTNjLjEzLDIuMywxLjA5LDQuMjEsMi4zOSw0Ljc2YTEuODcsMS44NywwLDAsMCwuNjcuMTZjMS43OS4wOSwzLjQ0LTIuNDgsMy41Ni01LjU3cy0xLjI4LTUuNzgtMy4wNy01Ljg1Wm0tNCw1LjU1aDBaIiBjbGFzcz0iY2xzLTIiLz48cGF0aCBkPSJNMjY0LjY3LDUzLjYxYy4xMywyLjUsMS4yMiw0LjU1LDIuNjksNS4xN2E0LjI5LDQuMjksMCwwLDAsMS4yLTNjLjA4LTItLjg0LTMuNTgtMi0zLjY0QTIuMTYsMi4xNiwwLDAsMCwyNjQuNjcsNTMuNjFaIiBjbGFzcz0iY2xzLTIiLz48cGF0aCBkPSJNMjY3LjQ1LDU5LjM3bC0uMjktLjEzYy0xLjY3LS43MS0yLjg1LTIuOTEtMy01LjYxdi0uMTJsMC0uMTFhMi41NSwyLjU1LDAsMCwxLDIuMzQtMS43NmMxLjUuMDcsMi42LDEuOSwyLjUxLDQuMTdhNC44NCw0Ljg0LDAsMCwxLTEuMzcsMy4zNVptLTIuMjgtNS42NmMuMTQsMiwxLDMuNzcsMi4wOSw0LjQ2YTQuMjcsNC4yNywwLDAsMCwuOC0yLjQxYy4wNy0xLjc5LS43Ni0zLjA4LTEuNTUtMy4xMkMyNjYsNTIuNjIsMjY1LjUyLDUzLDI2NS4xNyw1My43MVoiIGNsYXNzPSJjbHMtMiIvPjxwYXRoIGQ9Ik0yNTMuNzksNTUuMTdjLjM0LDIuODIsMS43NSw1LDMuNTUsNS4zNWE1LjQ0LDUuNDQsMCwwLDAsMS0zLjA2Yy4wOS0yLjI1LTEtNC4xMi0yLjMzLTQuMThDMjU1LjEsNTMuMjQsMjU0LjI3LDU0LDI1My43OSw1NS4xN1oiIGNsYXNzPSJjbHMtMiIvPjxwYXRoIGQ9Ik0yNTcuNTUsNjEuMDdsLS4zMS0uMDZjLTItLjQtMy41Ny0yLjcyLTQtNS43OFY1NS4xbC4wNS0uMTJhMywzLDAsMCwxLDIuNzEtMi4yYzEuNjguMDgsMi45MiwyLjE0LDIuODEsNC43YTUuOTQsNS45NCwwLDAsMS0xLjEyLDMuMzVabS0zLjI1LTUuODNjLjMyLDIuNCwxLjQ0LDQuMjIsMi44Myw0LjcxYTUuMSw1LjEsMCwwLDAsLjcyLTIuNTFjLjA4LTEuOTQtLjc3LTMuNjEtMS44NS0zLjY2aDBDMjU1LjMzLDUzLjc4LDI1NC43MSw1NC4zMywyNTQuMyw1NS4yNFoiIGNsYXNzPSJjbHMtMiIvPjxlbGxpcHNlIHRyYW5zZm9ybT0idHJhbnNsYXRlKC04LjczIDQ3LjYxKSByb3RhdGUoLTkuNTQpIiByeT0iMi4xNSIgcng9IjEuMzkiIGN5PSI3Ni4xMiIgY3g9IjI4MC45MiIgY2xhc3M9ImNscy0yIi8+PHBhdGggZD0iTTI4MS4xMiw3OC43NWMtMSwwLTEuODQtMS0yLjA3LTIuMzJhMy4wOCwzLjA4LDAsMCwxLC40Mi0yLjI2LDEuNTYsMS41NiwwLDAsMSwxLS42N2gwYTEuNzMsMS43MywwLDAsMSwxLjUzLjYyLDMuMzYsMy4zNiwwLDAsMSwuNzgsMS42OGMuMjQsMS40Ny0uMzksMi43NS0xLjQzLDIuOTNabS0uNDEtNC4yNmgtLjA3YS41OC41OCwwLDAsMC0uMzYuMjYsMi4xMiwyLjEyLDAsMCwwLS4yNCwxLjUyYy4xNi45My43MywxLjU2LDEuMTUsMS40N3MuNzctLjgxLjYxLTEuNzdhMi4zNCwyLjM0LDAsMCwwLS41My0xLjE4QS43OS43OSwwLDAsMCwyODAuNzEsNzQuNDlabS0uMTUtLjQ5aDBaIiBjbGFzcz0iY2xzLTIiLz48ZWxsaXBzZSB0cmFuc2Zvcm09InRyYW5zbGF0ZSgtMTAuMzggNTguNzEpIHJvdGF0ZSgtMTEuOTIpIiByeT0iMy4wNyIgcng9IjEuOTgiIGN5PSI3OS4wNCIgY3g9IjI3NS45MSIgY2xhc3M9ImNscy0yIi8+PHBhdGggZD0iTTI3Ni4yNyw4Mi41OGEyLjM1LDIuMzUsMCwwLDEtMS42NC0uNzcsNC41OSw0LjU5LDAsMCwxLTEuMTUtMi4yNiw0LjUyLDQuNTIsMCwwLDEsLjE0LTIuNTIsMi4yMiwyLjIyLDAsMCwxLDEuNTUtMS40OWgwYzEuMzctLjI4LDIuNzUsMSwzLjE3LDNhNC41Niw0LjU2LDAsMCwxLS4xNCwyLjUzLDIuMiwyLjIsMCwwLDEtMS41NSwxLjQ4QTIuNDUsMi40NSwwLDAsMSwyNzYuMjcsODIuNThabS0uODktNi4wNmExLjI3LDEuMjcsMCwwLDAtLjgyLjg2LDMuNjksMy42OSwwLDAsMC0uMSwyLDMuNTksMy41OSwwLDAsMCwuODksMS43NiwxLDEsMCwwLDAsMS45MS0uNDEsMy41NiwzLjU2LDAsMCwwLC4xLTJjLS4yOS0xLjM3LTEuMTktMi4zOC0yLTIuMjJaIiBjbGFzcz0iY2xzLTIiLz48Y2lyY2xlIHI9IjAuNjYiIGN5PSI2NS42NiIgY3g9IjI1NS4xMSIgY2xhc3M9ImNscy0yIi8+PGNpcmNsZSByPSIxLjAzIiBjeT0iNjYuNTIiIGN4PSIyNTAuOTEiIGNsYXNzPSJjbHMtMiIvPjxjaXJjbGUgcj0iMS4wMyIgY3k9IjY5LjU1IiBjeD0iMjU0LjI1IiBjbGFzcz0iY2xzLTIiLz48cGF0aCBkPSJNMTg0LDM4LjE1YTEwLjQxLDEwLjQxLDAsMCwwLC40MiwxLjgzYy44NCwyLjcxLDIuNjEsNC42LDQuNDUsNC42M2ExLjcsMS43LDAsMCwwLC40NSwwYzIuNC0uMzMsMy45LTMuNzcsMy4zNi03LjY2cy0yLjkyLTYuNzktNS4zMi02LjQ2UzE4My41LDM0LjI1LDE4NCwzOC4xNVoiIGNsYXNzPSJjbHMtNiIvPjxwYXRoIGQ9Ik0xODkuMSw0NS4xMmgtLjI0Yy0yLDAtNC0yLTQuODgtNWExMi4xMywxMi4xMywwLDAsMS0uNDQtMS45MWgwQzE4MywzNCwxODQuNjIsMzAuMzYsMTg3LjMzLDMwczUuMjksMi42NSw1Ljg4LDYuODhhMTAuMjEsMTAuMjEsMCwwLDEtLjYxLDUuNDQsNC4yOCw0LjI4LDAsMCwxLTMuMTcsMi43OVptLTQuNTctN2ExMS4yMiwxMS4yMiwwLDAsMCwuNCwxLjc1Yy43OSwyLjU0LDIuMzksNC4yNiw0LDQuMjhoLjM2YTMuMywzLjMsMCwwLDAsMi40LTIuMjEsOS4xOSw5LjE5LDAsMCwwLC41NC00Ljg5Yy0uNS0zLjYxLTIuNjQtNi4zMS00Ljc2LTZTMTg0LDM0LjQ2LDE4NC41MywzOC4wOFoiIGNsYXNzPSJjbHMtMiIvPjxwYXRoIGQ9Ik0xOTQuNjgsMzUuNTJhNy4zOSw3LjM5LDAsMCwwLC4yLDFjLjU4LDIuNDQsMiw0LjI2LDMuNTcsNC42MWEyLjMyLDIuMzIsMCwwLDAsLjg3LDBjMi4wOS0uMjksMy40MS0zLjI4LDIuOTMtNi42OHMtMi41NS01LjkyLTQuNjQtNS42M1MxOTQuMjEsMzIuMTIsMTk0LjY4LDM1LjUyWiIgY2xhc3M9ImNscy02Ii8+PHBhdGggZD0iTTE5OSw0MS42OGEzLDMsMCwwLDEtLjY2LS4wOGMtMS43Ny0uNDEtMy4zMi0yLjM2LTQtNWE4LjIsOC4yLDAsMCwxLS4yLTFjLS41Mi0zLjczLjk1LTYuOTEsMy4zNS03LjI1QTMuNzgsMy43OCwwLDAsMSwyMDAuOTIsMzBhOS4wNSw5LjA1LDAsMCwxLDEuODMsNC40NWMuNTIsMy43My0xLDYuOTEtMy4zNiw3LjI1QTIuNTYsMi41NiwwLDAsMSwxOTksNDEuNjhabS0xLjA2LTEyLjM2aC0uMjZjLTEuNzguMjUtMi45MywzLjA2LTIuNSw2LjEyaDBhNi42Niw2LjY2LDAsMCwwLC4xOC45MWMuNTMsMi4yMywxLjgyLDMuOTQsMy4yLDQuMjVhMS44MSwxLjgxLDAsMCwwLC42OSwwYzEuNzktLjI1LDIuOTMtMy4wNiwyLjUxLTYuMTJhOCw4LDAsMCwwLTEuNjEtMy45NUEzLDMsMCwwLDAsMTk3Ljk0LDI5LjMyWiIgY2xhc3M9ImNscy0yIi8+PHBhdGggZD0iTTIxNC4xMiw1OS40MmExLjc5LDEuNzksMCwwLDAsMS4zLjYzbC4yMywwQTEuNzIsMS43MiwwLDAsMCwyMTYuOSw1OWEzLjQ0LDMuNDQsMCwwLDAsLjE4LTEuODVjLS4yNS0xLjQ2LTEuMjgtMi40OC0yLjMxLTIuM2gwYy0xLC4xOC0xLjY3LDEuNDctMS40MiwyLjkzQTMuMzQsMy4zNCwwLDAsMCwyMTQuMTIsNTkuNDJaIiBjbGFzcz0iY2xzLTIiLz48cGF0aCBkPSJNMTg3LjczLDUwLjcyYS42NS42NSwwLDAsMCwuNTYtLjc0LjY2LjY2LDAsMCwwLS43NS0uNTYuNjUuNjUsMCwwLDAtLjU2Ljc0QS42Ni42NiwwLDAsMCwxODcuNzMsNTAuNzJaIiBjbGFzcz0iY2xzLTIiLz48cGF0aCBkPSJNMTgzLjgsNTIuNjhhMSwxLDAsMSwwLTEuMTYtLjg3QTEsMSwwLDAsMCwxODMuOCw1Mi42OFoiIGNsYXNzPSJjbHMtMiIvPjxwYXRoIGQ9Ik0xODcuNjIsNTUuMDdhMSwxLDAsMSwwLS4yOC0yLDEsMSwwLDAsMC0uODcsMS4xNUExLDEsMCwwLDAsMTg3LjYyLDU1LjA3WiIgY2xhc3M9ImNscy0yIi8+PHBhdGggZD0iTTIxMC41Nyw2My44OGEyLjMzLDIuMzMsMCwwLDAsLjM3LDAsMi4yLDIuMiwwLDAsMCwxLjU1LTEuNDgsNC41Nyw0LjU3LDAsMCwwLC4xNC0yLjUzYy0uNDEtMi0xLjgtMy4yNy0zLjE2LTNzLTIuMTEsMi0xLjY5LDRDMjA4LjE2LDYyLjYzLDIwOS4zMyw2My44OCwyMTAuNTcsNjMuODhaIiBjbGFzcz0iY2xzLTIiLz48cGF0aCBkPSJNMzYyLDE0NS4yOWMtLjQ4LS42Ny0yLjQxLTMuNzMtNC40NS03LTIuNTUtNC01LjQzLTguNjItNi4zNC05LjlsLS44My0xLjE3LTEuMy0xLjgzLTEuNi0yLjI2LTEuNzQtMi40NUwzNDQsMTE4LjI4Yy0uNTItLjcyLTEtMS40NC0xLjU0LTIuMTctLjgzLTEuMTctMS42OC0yLjMzLTIuNDEtMy41OGwtMS4xLTEuOWE0LjU0LDQuNTQsMCwwLDAtLjQxLS42My41Mi41MiwwLDAsMC0uNjUtLjEyYy0uMjcuMTQtLjI5LjQ3LS4zMi43NGExMS44MiwxMS44MiwwLDAsMCwwLDEuNDZjMCwuNzMsMCwxLjQ1LDAsMi4xN2wwLDEuN3YuMTNhMzIuNTMsMzIuNTMsMCwwLDEtMTAuNTIsNC43OGMtMS40NC40MS0yLjkxLjc3LTQuMzksMS4xbC0uNjQtMS4yN2MtLjQ5LTEtMS0yLTEuNDctM2ExLjI4LDEuMjgsMCwwLDAtLjM2LS40OS41OS41OSwwLDAsMC0uNTgtLjFjLS4zNS4xNi0uMzMuNTYtLjM1Ljg4LS4wOCwxLjI0LS4xNywyLjQ5LS4yNiwzLjczLDAsLjIsMCwuMzktLjA1LjU5YTIuMjIsMi4yMiwwLDAsMSwwLC4zN2MtMi41My40NC01LjA5Ljc3LTcuNjUsMXMtNS4yLjM1LTcuODEuMzYtNS4yMS0uMDgtNy44MS0uMjhsLTIuMzEtLjE4YS4zNS4zNSwwLDAsMS0uMjItLjEuNDIuNDIsMCwwLDEtLjA5LS4yNGMwLS4yMy0uMDgtLjQ3LS4xMy0uN3MtLjE3LS43Ni0uMjUtMS4xNC0uMTctLjc4LS4yNi0xLjE4YTQuOTQsNC45NCwwLDAsMC0uMjctMS4xNS42LjYsMCwwLDAtMS4xMywwLDcuMzksNy4zOSwwLDAsMC0uMzEuOTRjLS4xMS4zNS0uMjMuNy0uMzUsMS4wNi0uMjMuNjktLjQ2LDEuMzktLjcsMi4wOC0uNiwwLTEuMi0uMTgtMS43OS0uMjhzLTEuMjktLjIxLTEuOTMtLjMzYy0xLjI3LS4yMy0yLjU1LS41LTMuODEtLjc5cS0zLjU0LS44My03LTJjLTEuNS0uNS0zLTEtNC40NS0xLjY3LS4zLS4xMy0uNjgtLjItLjc1LS41YTYuNTcsNi41NywwLDAsMSwuMTItMS4yMywyNi4yMiwyNi4yMiwwLDAsMC0uMzEtMy43NS41OC41OCwwLDAsMC0uNDctLjUyYy0uODItLjE1LTEsMS0xLjMsMS41OWEyMC44MSwyMC44MSwwLDAsMC0xLjUsMy43OCw3Ny45MSw3Ny45MSwwLDAsMS0zLjI0LDExLDYzLjQxLDYzLjQxLDAsMCwxLTYuMjgsMTEuNzhxLTEuNzcsMi42My0zLjc1LDUuMDhjLS42OC44NS0xLjM3LDEuNjctMi4wOCwyLjQ5bC0xLjA3LDEuMi0uNTUuNmMtLjEzLjE0LS41Mi40Mi0uNTYuNTkuNjItMi41MiwxLjI5LTUuMDcsMS45My03LjU0LDIuMzQtOSw0LjU1LTE3LjUsNS4xMy0yNS43M2ExMDkuMzgsMTA5LjM4LDAsMCwwLS45LTIzLjMxYy0uMDUtLjQ2LS4xMS0uODktLjE2LTEuMzEsMCwwLDAtLjA5LDAtLjEzYTguNzEsOC43MSwwLDAsMCw0LjA3LDIuNDEsNi4yNiw2LjI2LDAsMCwwLDEuNDkuMTgsNy4xMiw3LjEyLDAsMCwwLDEtLjA4aDBhMi4yMSwyLjIxLDAsMCwwLC4zNS0uMDhjMi40OS0uNTcsNC40OS0yLjczLDUuNjEtNmwwLS4wN2ExOC4yMiwxOC4yMiwwLDAsMCw2Ljk0LjkxLDE1LDE1LDAsMCwwLDIuMTEtLjI3Yy4yNCwwLC40OC0uMS43Mi0uMTUuNDEtLjEuODItLjIxLDEuMjMtLjM0YTE5LjI4LDE5LjI4LDAsMCwwLDMuNzItMS41OSwxNC4zOCwxNC4zOCwwLDAsMCw1Ljg2LTZjMy40NC02Ljc3LDEuMTEtMTQuMDgtNi41NS0yMC41N2ExNC40MSwxNC40MSwwLDAsMS01LTkuMjcsMTIuNiwxMi42LDAsMCwwLTQuMjktNy41OSwxMC44MywxMC44MywwLDAsMC0zLjYzLTEzLjE0bC0uMjEtLjE1YTEuNzksMS43OSwwLDAsMC0yLjEyLjA1LDEuODYsMS44NiwwLDAsMC0uNjcsMi4wOUE5LjIxLDkuMjEsMCwwLDEsMjY1LjIsMzljLTMuNDQtMS43OS05LTQtMTQuNjYtMy4yOS0uMjIsMC0uNDUuMDUtLjY3LjA5YTEyLjEzLDEyLjEzLDAsMCwwLTEuNjcuMzZsLS45LjI3YTE2LDE2LDAsMCwwLTEuNzguNzQsMTUsMTUsMCwwLDAtMS41Ni44OWwwLDBhMTEuNCwxMS40LDAsMCwxLTIuNDEtNi41NiwxLjgyLDEuODIsMCwwLDAtMS4zLTEuNjgsMS43OCwxLjc4LDAsMCwwLTEuMjUuMDdsLS4xLDBhMS43OSwxLjc5LDAsMCwwLS42NS41NSwxMS42MSwxMS42MSwwLDAsMC0uNjcsMSwxMywxMywwLDAsMCwuODIsMTQuNjJjLTEuNjMsNC45LTIuNjEsMTguNTctMi44MSwyMS41MSwwLDAsMCwwLDAsLjA2LS40Nyw0LjYzLTEsOS4xOS0xLjY0LDEzLjYzLTIuMjIsMC00LDEuMjktNC4xOCwzczEuMjIsMywzLjIxLDMuNWMwLDAsMCwwLDAsMC0uMTEuNjgtLjIyLDEuMzgtLjM0LDIuMS0yLjUyLS4yNy00LjY1LjY4LTUsMi4zN2EzLDMsMCwwLDAsMS4wOCwyLjc1LDYuNzIsNi43MiwwLDAsMCwyLjc1LDEuNDdjLS4wNy40MS0uMTUuODEtLjIzLDEuMjEtMy4yMS0uNDktNS45LjM5LTYuMjgsMi4xNWEzLDMsMCwwLDAsMS40NCwyLjkxLDkuNzIsOS43MiwwLDAsMCwzLjM5LDEuNjJjLS4wOS4zNy0uMTcuNzQtLjI2LDEuMWwtLjE4LjY5Yy0yLjcyLS42Ni01LjEtLjM4LTYuMjIuNjdsLS4xNy4xNi0uMS4xMmEyLDIsMCwwLDAtLjMzLjY1Yy0uNTEsMS43OCwxLjU1LDMuODYsNC44Niw1bC0uNTQsMS41Ny0uMTMsMGE1LDUsMCwwLDAtMi4xMywwbC0uMDksMGExLDEsMCwwLDAtLjI1LjA3LDIuMTksMi4xOSwwLDAsMC0xLjQ5LDEuMzcsMi4zNSwyLjM1LDAsMCwwLC42LDIuMjYsNSw1LDAsMCwwLDEuNTcsMS4xOSwxMTkuOTIsMTE5LjkyLDAsMCwxLTEwLDE4LjQ3bDAtLjEyYTkxLDkxLDAsMCwwLTMuNDctMTAuMjNjMC0uMDYsMC0uMTMtLjA4LS4xOS0uODYtMi4xMS0xLjcxLTQuMjEtMi41NS02LjMyLTEuNjItNC4wNi0zLjI0LTguMjItNC45NC0xMi42M2wtMS41NC00Yy0zLjI2LTguNTUtNi4yLTE4LjI5LTguNzQtMjYuOTMsMC0uMTItLjA3LS4yMy0uMS0uMzRhOC4yMiw4LjIyLDAsMCwwLDMuMTYuODhIMTk3YTYuMjUsNi4yNSwwLDAsMCwyLjA5LS4zNkE1LjgzLDUuODMsMCwwLDAsMjAwLDc3YS41NC41NCwwLDAsMCwuMTYtLjFjMS45MS0xLjE2LDMuMjItMy40LDMuNy02LjM3bDAtLjIxYTE4LjY0LDE4LjY0LDAsMCwwLDIuNjYuMiwxNy41MiwxNy41MiwwLDAsMCw5LjUtMi43NmwuMDcsMGEyMC41MywyMC41MywwLDAsMCwyLTEuNDQsMTQuMzMsMTQuMzMsMCwwLDAsNC42OC02Ljk1YzIuMTctNy4yOS0xLjQyLTE0LjA2LTEwLjEyLTE5LjA3YTE0LjQyLDE0LjQyLDAsMCwxLTYuNi04LjIyLDEyLjY2LDEyLjY2LDAsMCwwLTUuNTgtNi43MSwxMC44NSwxMC44NSwwLDAsMC01LjkyLTEyLjI4bC0uMjQtLjExYTEuODEsMS44MSwwLDAsMC0yLjA4LjQzLDEuOSwxLjksMCwwLDAtLjUsMS4zMiwyLDIsMCwwLDAsLjIyLjg2LDkuMTcsOS4xNywwLDAsMSwxLjA4LDUuMDVsMCwuMzJhOC4zMyw4LjMzLDAsMCwxLS4xNiwxYy00LjU3LTEuNDItMTIuNDMtMi44Ny0xOC43LDFsLS40MS4yNi0uNTcuNGExNC4xLDE0LjEsMCwwLDAtMS4zOSwxLjE3bC0uMDUtLjA1YTExLjQ2LDExLjQ2LDAsMCwxLTMuNTItNiwxLjgxLDEuODEsMCwwLDAtMS41OC0xLjQxLDEuNzQsMS43NCwwLDAsMC0xLjM3LjM5aDBhMS44NywxLjg3LDAsMCwwLS40Ny42Yy0uMTcuMzYtLjMzLjcyLS40NywxLjFhMTIuODgsMTIuODgsMCwwLDAtLjc0LDYuMjksMTMuMDYsMTMuMDYsMCwwLDAsNC4xNiw4Yy0uNjMsNC4zMy4zNSwxNC44MS44MywxOS40NS4xNCwxLjI5LjIzLDIuMTIuMjUsMi4yNnEuNCw1LC45LDkuOTNsLS4wOCwwaDBsLS4xMiwwYy0yLC42NC0zLjM0LDIuMjgtMywzLjkyczEuODksMi41NywzLjg3LDIuNTdoLjA5bC4xOCwxLjU5LS40OC4wOC0uNDMuMDljLTIuMi41NC0zLjcxLDEuOTQtMy42LDMuNTNhMi45NCwyLjk0LDAsMCwwLDEuNzksMi4zNCw2LjYyLDYuNjIsMCwwLDAsMywuNjhsLjUzLDBjLjA3LjQ3LjEzLjkzLjE5LDEuMzlsLS4yOCwwYTkuNjUsOS42NSwwLDAsMC0zLjU0LDEuMzIsMS4xNCwxLjE0LDAsMCwwLS4yMy4xNSwzLDMsMCwwLDAtMS41OSwyLjcyLDIuNzYsMi43NiwwLDAsMCwxLjgzLDJsLjUyLjIuMjMuMDcuNDIuMTFjLjE1LDAsLjMyLjA3LjQ4LjA5bC4zMi4wNWExMC4yMSwxMC4yMSwwLDAsMCwxLjM4LjA5Yy4zOSwwLC44LDAsMS4yLS4wNmwuMjcsMGMuMDguNDQuMTUuODkuMjIsMS4zM2wtLjI5LjA2YTguODEsOC44MSwwLDAsMC00LjEyLDEuODJsMCwwLS4yNC4yMy0uMTcuMTlhMi4zNCwyLjM0LDAsMCwwLS42MSwxLjc3Yy4xMiwxLDEsMS44MiwyLjM3LDIuMjlsLjQ0LjEzLjYxLjE0YTExLjEzLDExLjEzLDAsMCwwLDIuMDcuMTksOCw4LDAsMCwwLC44MywwbC4yOCwwLC4yMSwxLjI3LS4yNy4wNy0uNDMuMTQtLjI5LjExYy0xLjU4LjY4LTIuNTMsMS45Mi0yLjI4LDMuMTNzMS41NywxLjg5LDMuMjEsMS44OWE2Ljg3LDYuODcsMCwwLDAsMS0uMDljMS43Miw5Ljc1LDMuNDcsMTksNS4zMiwyNy44NC4xOS44OC40LDEuNzYuNjIsMi42NS43OSwzLjE4LDEuNiw2LjQ4LjY5LDkuNThhNS4yOSw1LjI5LDAsMCwxLTIuMzgsMy4xMmwtLjA2LDBhNS40NSw1LjQ1LDAsMCwxLTEuNzUuNjIsOC42Myw4LjYzLDAsMCwxLTUuMS0xYy0zLjY1LTEuODItNi43OS01LjA3LTkuMzQtOS42NWE0MS4zNCw0MS4zNCwwLDAsMS0zLjI0LTguMDhjMS44LS43NywyLjg3LTIuMjIsMi40OC0zLjUyYTIuMzUsMi4zNSwwLDAsMC0xLjgtMS41LDQuODYsNC44NiwwLDAsMC0yLjEyLDBjLS4xMi0uNDMtLjI0LS44Ny0uMzUtMS4zLDIuODYtMSw0Ljc5LTIuODEsNC41OS00LjQ1YTIuMDUsMi4wNSwwLDAsMC0uOTQtMS40NGMtMS4xLS43NS0zLjA2LS45My01LjE5LS40OWwtLjMtMS40LjUzLS4xN2MyLjc4LS45Myw0LjY1LTIuNzIsNC40LTQuMzRhMi4xOCwyLjE4LDAsMCwwLTEtMS40Nyw3LjQyLDcuNDIsMCwwLDAtNS4xNi0uNjFjLS4wOC0uNDctLjE1LTEtLjIyLTEuNDdoMGwuMzEtLjA4LjE0LDBhNC44Miw0LjgyLDAsMCwwLDEuOC0xLDIuMTUsMi4xNSwwLDAsMC0uNzItMy44Niw1LjEsNS4xLDAsMCwwLTIuMjEtLjI3Yy0uMDYtLjU1LS4xMi0xLjEzLS4xOC0xLjY5YS4wOS4wOSwwLDAsMSwwLDAsMy4zOCwzLjM4LDAsMCwwLDEuNDMtMSwyLjQsMi40LDAsMCwwLC42Mi0xLjg1LDIuNTUsMi41NSwwLDAsMC0xLjE4LTEuODYsMi45MiwyLjkyLDAsMCwwLS43Ni0uMzVoMGEyLjgsMi44LDAsMCwwLS4zMS0uMDlsLS4xMSwwLS4xNCwwLS4wNiwwYy0uMzktLjI4LS4zMi0yLjYzLS4zMi0yLjk0LS4xNy04LjE1LS44NC0xNi4zLTEuMTktMjQuNDQtLjE5LTQuMzItLjEyLTguNjktMS0xMi45NWEyNS4zOSwyNS4zOSwwLDAsMC0uOTItMy40MiwxMy42MiwxMy42MiwwLDAsMCwxLjEtMTQuODJjLS4yLS4zNy0uNDItLjczLS42NS0xLjA3YTEuODUsMS44NSwwLDAsMC0yLS43NmgwbC0uMDUsMEExLjg2LDEuODYsMCwwLDAsMTQ3LjA2LDM1YTEyLjEyLDEyLjEyLDAsMCwxLTIuODUsNi44N2wtLjA2LDBhMTMuODUsMTMuODUsMCwwLDAtMS41NS0xLDE4LjUxLDE4LjUxLDAsMCwwLTEyLTEuNjdjLS44LjEyLTEuNTguMjktMi4zNC40OGwtMS4wNi4yOGEzNy4zNSwzNy4zNSwwLDAsMC01LjMxLDJ2MGE5LjcsOS43LDAsMCwxLDAtNi44LDEuOTMsMS45MywwLDAsMC0uNTktMi4xOCwxLjg4LDEuODgsMCwwLDAtMi4xOS0uMTRsLS4yMy4xNWExMS4zNCwxMS4zNCwwLDAsMC01LDEwLjgxLDExLjU2LDExLjU2LDAsMCwwLC40MiwyaDBhNy4xNiw3LjE2LDAsMCwwLC4yNS43NGwwLC4wOGExMy4zNCwxMy4zNCwwLDAsMC00LjgxLDcuNzdBMTUuMjEsMTUuMjEsMCwwLDEsMTA0LDYzLjkyYy04LjMsNi40Ny0xMSwxNC03LjczLDIxLjI1YTE1LjExLDE1LjExLDAsMCwwLDUuODcsNi41MywxOC42NiwxOC42NiwwLDAsMCwxNCwyLjQ2bC42OC0uMTYuNjgtLjE4YzEuMDgsMy42NiwzLjI0LDYuMSw2LDYuNjlhNi41OCw2LjU4LDAsMCwwLDEuMzIuMTQsNi4zMSw2LjMxLDAsMCwwLDEuMy0uMTQsNC4zNyw0LjM3LDAsMCwwLC40OS0uMTJoMGwuNjEtLjIuNDctLjE5YTEwLjQyLDEwLjQyLDAsMCwwLDMuMTYtMi4xOWwuMTgtLjE4Yy0uNTcsMy44MS0xLjQyLDcuNTMtMi4yOCwxMS4xNC0uNTcsMi40My0xLjE2LDUtMS42NSw3LjQ1LS40MywyLjIyLS44NSw1LjkyLTEuMDYsOC42N2gwYy0uMTEsMS4zNS0uMTcsMi40Ni0uMTYsMy4wNi4yMSwxMi41MywyLDIyLjYsNS42OSwzMi42NC4zNywxLC43NiwyLDEuMTYsMy0zLjMzLTMuNTItOS43LTEwLjctMTMuMTEtMTcuNTctLjE5LS4zNy0uMzYtLjczLS41My0xLjA5YS4zNy4zNywwLDAsMSwwLS4xMWMtLjE2LS4zMi0uMzEtLjY0LS40Ni0uOTUtLjA2LS4xMy0uMTItLjI2LS4xNy0uMzlhLjQ5LjQ5LDAsMCwxLS4wNi0uMTMsODMuMjksODMuMjksMCwwLDEtNS41OS0xNi43LDIuMzksMi4zOSwwLDAsMC0xLTEuNDdMMTA5LDEyMS4wOWwtLjI5LS4zMy0uMzYuMTFhLjYuNiwwLDAsMC0uNC41OWwuMjQsNGE3Mi43Miw3Mi43MiwwLDAsMS0xOC40NSw1bC0xLjU0LTQuMzktLjE4LS40LS4zOCwwYS41OC41OCwwLDAsMC0uNTQuNDZMODYuMDcsMTMxYy0xLjYuMTgtMy4yNy4zMi01LC40MmE5MS41OSw5MS41OSwwLDAsMS0yMC42NC0xTDYwLDEyNC43bC0uMDgtLjQzLS4zNi0uMDhhLjYuNiwwLDAsMC0uNjUuMzFsLTIuNTUsNS4wOGE0MS40Niw0MS40NiwwLDAsMS0xMi43LTQuOTIsMjEuNjMsMjEuNjMsMCwwLDEtMS45Mi0xLjM5bC0uMS01LjhhLjU4LjU4LDAsMCwwLS4zOS0uNTVsLS40OC0uMS0yLDMuMzZMMTcuNCwxNTNsMCwuMDhhMS4yMiwxLjIyLDAsMCwwLS4wNy4xNywxLjEzLDEuMTMsMCwwLDAsMCwuMThzMCwuMDYsMCwuMDksMCwuMDUsMCwuMDhhMS4xNiwxLjE2LDAsMCwwLDAsLjE4Ljc3Ljc3LDAsMCwwLC4wNy4xNmwuMDkuMTRhMS44NSwxLjg1LDAsMCwwLC4xNC4xNGwuMDYuMDYuMDgsMCwuMTcuMDcuMTgsMCwuMDksMGM1LjY1LS4wOCwxMi4zOSwxLjY4LDE4LjkxLDQuOTRBNDguNDIsNDguNDIsMCwwLDEsNTEuNDYsMTcwYS45MS45MSwwLDAsMCwxLjMuMDcsMS4wNiwxLjA2LDAsMCwwLC4yLS4yNiw0Nyw0NywwLDAsMSwxMy41OS00LjQzYzkuNjctMS42NCwxOS4xNC0uNDIsMjQuMTMsMy4xMWwuMzkuMjkuNDItLjI2YzMuMTMtMS44Nyw3Ljc0LTMuOTUsMTEtNC4zNmEzMy41NywzMy41NywwLDAsMSwxMS43MiwxQTU2LjQ1LDU2LjQ1LDAsMCwxLDEzNSwxNzQuNmE0Ni4xMSw0Ni4xMSwwLDAsMSw3LjQ1LDYuODhjMS45LDIuMTksMy43Miw0LjE0LDUuNDksNS44NWEzMS4wNiwzMS4wNiwwLDAsMC01LjY5LDMuODEsOS41OSw5LjU5LDAsMCwwLTMsNi43NmMtMy43Ny00LjI4LTYtOS44MS05Ljg0LTE0LjE5LTYuNzItNy43Ni0xOC0xMC4zMy0yNi4zMy0zLjQ2QTE4LjMyLDE4LjMyLDAsMCwwLDk3LDE4OS45M2wtMy0uNjFhLjUyLjUyLDAsMCwwLS42MS42NWwxLjkyLDEwLjU2YS44My44MywwLDAsMCwxLjUyLjI4bDUuNTctOC44NWEuNjkuNjksMCwwLDAtLjQ3LTFsLTEuOC0uMzdjLjItLjM2LjQxLS43My42LTEuMDlsLjEyLS4yMWExNC4yLDE0LjIsMCwwLDEsMy00LjA2LDExLjQ0LDExLjQ0LDAsMCwxLDUtMi40OCwxMi40MiwxMi40MiwwLDAsMSwxMCwyLjI0LDI2LjI2LDI2LjI2LDAsMCwxLDcuMDYsOC42Niw0Ny40Miw0Ny40MiwwLDAsMCwxNiwxNywxOC41NSwxOC41NSwwLDAsMCwxLjg1LDEsNjQuNCw2NC40LDAsMCwwLDYuMzMsNy43OGwtNC40My43MS0uMTUsMGEuOS45LDAsMCwwLS4xNiwwbC0uNzguMTUtLjI2LjA1YTkuODEsOS44MSwwLDAsMS0zLjUxLjMzYy0uNDItLjA3LS44MS0uMTYtMS4yLS4yNWE2Ljc0LDYuNzQsMCwwLDAtNC4xMS0uMDZjLTEuMDUuMzctNC4yNSwyLTQuNywzLjY3YTEuNjEsMS42MSwwLDAsMCwuMjcsMS41NSwzLjEsMy4xLDAsMCwwLDIuNDEuNzQsMjMuODcsMjMuODcsMCwwLDAsMi41OC0uMmwuNDItLjA1LS4xNS4yNC0uMjMuMzdBMS4zOSwxLjM5LDAsMCwwLDEzNiwyMjhhMS4zNywxLjM3LDAsMCwwLC45My44Miw2Ljg5LDYuODksMCwwLDAsMy40NS4xNiwxMS4yNSwxMS4yNSwwLDAsMCwyLjM1LTEuMDUsOS4yMSw5LjIxLDAsMCwxLDEuNTEtLjczLDQuODQsNC44NCwwLDAsMCwuNTgsMi40M2wuMzYuNzdhMS41MSwxLjUxLDAsMCwwLDEuMS44M2wuMjUsMGExLjU0LDEuNTQsMCwwLDAsMS4wNy0uNDQsNC43NSw0Ljc1LDAsMCwxLDEuNjQtMS4xMiwyLjQzLDIuNDMsMCwwLDAsMS4xOS0xLjA2bC4xMiwwYy4xLDAsOS41Ni00LjIzLDE1LjItMS4yYTEuNzIsMS43MiwwLDAsMCwxLjg1LjA4LDEuODgsMS44OCwwLDAsMCwuNjctMS45LDkuMTksOS4xOSwwLDAsMC01LjYtNi44Mi4yNC4yNCwwLDAsMS0uMDYtLjEuMjkuMjksMCwwLDEsMC0uMjQsMTYuNzgsMTYuNzgsMCwwLDAsMS0yLjg0bDIuOS4zNCw1LjY1LjU3LDEuNDIuMTEuNzEuMDYuMzUsMGguNDJsMiwwYy42NywwLDEuMzQtLjEsMi0uMTZhMjAuODksMjAuODksMCwwLDAsMTMuNjgtNy43NSwxOSwxOSwwLDAsMCwyLjg3LTUuMzIsNjcuMDgsNjcuMDgsMCwwLDAsMTMuMi0yLjgzbC4xMSwwLC4xNCwwYzEuODUtLjYsMy42Ni0xLjI4LDUuNC0yLDAsLjA1LDAsLjEsMCwuMTVsMCwuMjljMCwuMDgsMCwuMTgsMCwuMjdzMCwuMzQsMCwuNTJjMCwuNzUtLjA1LDEuNjEsMCwyLjU1cTAsLjM5LDAsLjgxYy4wNiwxLjA2LjE1LDIuMTguMjcsMy4zMywwLC4zLjA3LjYxLjExLjkxYTEuMSwxLjEsMCwwLDAsMCwuMThjMCwuMzQuMDkuNjguMTQsMXMuMTEuODEuMTgsMS4yMS4xMy43OS4yLDEuMTguMTUuNzguMjIsMS4xNi4xMy42NS4yLDFhMjMuNjcsMjMuNjcsMCwwLDAsMS42NSw1LjMxLDAsMCwwLDAsMSwwLC4wNS4xMy4xMywwLDAsMSwwLC4wNi4yOS4yOSwwLDAsMSwwLC4xMy4xNy4xNywwLDAsMCwwLC4wNXMwLDAsMCwwYTkuNjEsOS42MSwwLDAsMC01LjMyLDUuNjFjMCwuMTItLjA4LjIzLS4xMS4zNGEuNzQuNzQsMCwwLDEsMCwuMTQsNC42Myw0LjYzLDAsMCwwLS4xMy43NCwyLjY1LDIuNjUsMCwwLDAsMCwuMjcsMywzLDAsMCwwLDAsLjMyLDEuNjMsMS42MywwLDAsMCwuNjgsMS4zMSwxLjcsMS43LDAsMCwwLDEuODQtLjA4YzUuNjQtMywxNS4xMSwxLjE2LDE1LjIsMS4yYS41My41MywwLDAsMCwuMTIsMGgwYTIuMzQsMi4zNCwwLDAsMCwxLjE4LDEuMDcsNC44Niw0Ljg2LDAsMCwxLDEuNjQsMS4xMSwxLjUxLDEuNTEsMCwwLDAsMS4wNy40NWwuMjUsMGExLjUzLDEuNTMsMCwwLDAsMS4xLS44NGwuMzYtLjc2YTQuODUsNC44NSwwLDAsMCwuNTgtMi40NCwxMS4yMSwxMS4yMSwwLDAsMSwxLjUxLjczLDExLjMxLDExLjMxLDAsMCwwLDIuMzUsMS4wNiw2Ljg5LDYuODksMCwwLDAsMy40NS0uMTYsMS4zOCwxLjM4LDAsMCwwLC44Mi0yLjA2Yy0uMTctLjI3LS4zNi0uNTUtLjU2LS44M2EyNC44NSwyNC44NSwwLDAsMSwyLjkuMzgsNC43MSw0LjcxLDAsMCwwLC44OS4wOSwzLjIzLDMuMjMsMCwwLDAsMS4xMS0uMTksMS42MywxLjYzLDAsMCwwLDEtMS4xNSwxLjc0LDEuNzQsMCwwLDAtLjM3LTEuNTYsOSw5LDAsMCwwLTEuNTgtMS4zNWMtLjQyLS4zLS45MS0uNjYtMS41LTEuMTUtMS43NS0xLjQ1LTMuOTUtLjktNS41Ni0uNDktLjM3LjA5LS43Mi4xOC0xLC4yNGEzLjM4LDMuMzgsMCwwLDEtMS45Mi0uMjgsMTUsMTUsMCwwLDAtMi42OS0uNjYsNC4yOSw0LjI5LDAsMCwwLTQtMWMzLjg3LTQuMTksOC4yMi0xMC4wNiw5LjQ0LTE0LjI1czEuMzktMTAuMjgtMi4yMi0xMy4zOGEzMi4yNiwzMi4yNiwwLDAsMC02LjEyLTQsNDEuODgsNDEuODgsMCwwLDAsNS4zNS02LjY2LDgxLDgxLDAsMCwwLDQuNzEtOWwuMjktLjYyYzIuMzgtNSwxMC4zNy04LjI1LDEwLjUtOC4zMSw2LjI2LTMuMDgsMjIuMTctOS4zNywzNC45LTEuMjdsLjM2LjIyLjM4LS4xOGMxMS4yOC01LjY1LDI1LjgzLTUuMDcsMzguMTEsMS40NWExLjA1LDEuMDUsMCwwLDAsLjIuMjcsMSwxLDAsMCwwLC42MS4yMy45My45MywwLDAsMCwuNjktLjMxQTQ4LjUsNDguNSwwLDAsMSwzNDIsMTUyLjNjNi40LTMuMTksMTMtNC45NCwxOC41OS00Ljk0SDM2MWEuOTIuOTIsMCwwLDAsLjkyLS45MXMwLDAsMC0uMDdBLjg5Ljg5LDAsMCwwLDM2MiwxNDUuMjlabS0yMC43Myw1LjM2YTUwLjksNTAuOSwwLDAsMC0xNCwxMC4wNmwtMi42NC0xNi43N2EuNDYuNDYsMCwwLDEsLjA3LS4wNyw1Mi4xOCw1Mi4xOCwwLDAsMSwxMS4xMS03LjQsNDcuMTksNDcuMTksMCwwLDEsMTUuMzItNC43OGwuMDcsMGMxLjMsMiwzLjEzLDQuOTIsNC44Miw3LjU5czMuMTYsNSw0LDYuMjhDMzU0LjIzLDE0NS42MywzNDcuNjMsMTQ3LjQ1LDM0MS4yMiwxNTAuNjVabTguNDktMjEuMmMuMi4yOC41MS43My44OCwxLjMxYTQ4LjIyLDQ4LjIyLDAsMCwwLTE1LjI1LDQuODIsNTMuMjcsNTMuMjcsMCwwLDAtMTAuOTIsNy4ybC0zLTE4Ljc4YzItLjQxLDQtLjg4LDYtMS40MywzLjgxLTEuMSw5LjE2LTIuOTQsMTIuOC02LjVabS0yNi4zNCwxMy4xYTUwLjMxLDUwLjMxLDAsMCwwLTEwLjU2LTNjLTguODItMS41LTE3LjM1LS43Mi0yMi45MywyLjA4bDEuMjktMTYuNTJhOTYuODYsOTYuODYsMCwwLDAsMjkuMzEtLjkxWm0tMzQuNDYtMS4yMmMtLjUzLS4xOS0xLjEzLS40My0xLjc5LS43YTM2Ljc2LDM2Ljc2LDAsMCwwLTExLjY1LTMuMDdjLTcuNTctLjQ5LTExLjE5LjczLTE2LjIsMi40MWwtLjE2LjA2YTYxLjc3LDYxLjc3LDAsMCwwLDguNzMtMjEuMTRBNzkuMzYsNzkuMzYsMCwwLDAsMjkwLjE4LDEyNVptLjg4LDEuNDcuMTItLjA2LjEyLS4wNmM1LjM4LTIuODMsMTMuODQtMy42MiwyMi42MS0yLjEzYTQ4LjM4LDQ4LjM4LDAsMCwxLDEwLjkxLDMuMTVsMi43NiwxNy40M2MtMTIuMTktNi4yNi0yNi40NC02Ljg5LTM3LjgyLTEuNjhaTTI2MS4xMyw5My4yNmE0LjcyLDQuNzIsMCwwLDEtMS45MS0uMDhjLTIuNTYtLjYxLTQuMzgtMi45MS01LjQ2LTQuNzJhMzcuNzcsMzcuNzcsMCwwLDEtMi44Ni02LjU2Yy0uMzEtLjg3LS42OC0xLjc1LTEtMi42MWEyMC4xNywyMC4xNywwLDAsMS0xLjgyLTYsNC4wOSw0LjA5LDAsMCwxLDEuMTguNDksMTMuMjYsMTMuMjYsMCwwLDEsMy4yMywzLjUzLDI1LjI4LDI1LjI4LDAsMCwwLDIsMi40MWwuMDYuMDdhMTIuMjYsMTIuMjYsMCwwLDAsLjU5LDMuMzljLjg0LDIuNTYsMi4zNCw0LjUzLDQsNS4yOGEzLjI3LDMuMjcsMCwwLDAsMS4zNi4zMSwyLjU5LDIuNTksMCwwLDAsMS4xLS4yMywzLjQzLDMuNDMsMCwwLDAsMS42OS0xLjcxQTI0LDI0LDAsMCwwLDI2NS43Myw4OGwuMjQuMDlDMjY1LDkxLDI2My4yNCw5Mi44OSwyNjEuMTMsOTMuMjZabTUuNzYtNjEuMTNhLjM2LjM2LDAsMCwxLC4xNC0uNDMuMjkuMjksMCwwLDEsLjM4LDBsLjE4LjEzYTkuMzIsOS4zMiwwLDAsMSwzLjMyLDEwLjg3LDMxLjE3LDMxLjE3LDAsMCwwLTQuMzgtM0ExMC43LDEwLjcsMCwwLDAsMjY2Ljg5LDMyLjEzWk0xOTguNjIsNzZhNC41Nyw0LjU3LDAsMCwxLTEuOS4yN2MtMi42Mi0uMTUtNC44My0yLjA4LTYuMjEtMy42N2EzNy4yLDM3LjIsMCwwLDEtNC01Ljk0Yy0uNDYtLjgtMS0xLjYtMS40OC0yLjM4YTIwLjI4LDIwLjI4LDAsMCwxLTIuODktNS42Miw0LDQsMCwwLDEsMS4yNS4yOCwxMywxMywwLDAsMSwzLjgyLDIuODksMjUuODIsMjUuODIsMCwwLDAsMi4yOCwxLjkzLDExLjY5LDExLjY5LDAsMCwwLDEuMjQsMy40OWMxLjI4LDIuMzcsMy4xMSw0LDQuODgsNC40OWEzLjc2LDMuNzYsMCwwLDAsLjg2LjExLDIuODIsMi44MiwwLDAsMCwxLjU4LS40NywzLjU1LDMuNTUsMCwwLDAsMS4zOC0yLjE1LDIzLjc1LDIzLjc1LDAsMCwwLDIuNzcuOGwuMjUsMEMyMDIsNzMuMTQsMjAwLjYzLDc1LjMsMTk4LjYyLDc2Wm0tNS4yNy02MS4xN2EuMzguMzgsMCwwLDEsLjA1LS40NS4zMi4zMiwwLDAsMSwuMzgtLjA3bC4yLjA5YTkuMzMsOS4zMywwLDAsMSw1LjIxLDEwLjEsMzEuMjQsMzEuMjQsMCwwLDAtNC44NC0yLjEyQTEwLjc0LDEwLjc0LDAsMCwwLDE5My4zNSwxNC44NlpNMTE5LjY0LDM0LjI0bC4xOS0uMTJhLjQuNCwwLDAsMSwuMjEtLjA3LjQxLjQxLDAsMCwxLC4yNC4xLjQ0LjQ0LDAsMCwxLC4xMy41LDExLjE3LDExLjE3LDAsMCwwLC4wOCw4LDMyLjg3LDMyLjg3LDAsMCwwLTQuNzksM0E5Ljg1LDkuODUsMCwwLDEsMTE5LjY0LDM0LjI0Wm05LjQzLDYzLjIyQTcuMzIsNy4zMiwwLDAsMSwxMjUuODgsOTlhNC44Niw0Ljg2LDAsMCwxLTIsMGMtMi4yMy0uNDctNC0yLjU0LTQuOTEtNS42N2wuMjktLjFhMjUuMjcsMjUuMjcsMCwwLDAsMi42OS0xLjE4QTMuNjgsMy42OCwwLDAsMCwxMjMuNjMsOTRhMi45LDIuOSwwLDAsMCwxLjI2LjI4QTMuNTMsMy41MywwLDAsMCwxMjYuMiw5NGMxLjc3LS43MSwzLjQyLTIuNzEsNC40LTUuMzZhMTIuNTYsMTIuNTYsMCwwLDAsLjc3LTMuNTUsMjguMzYsMjguMzYsMCwwLDAsMi4yOS0yLjU1QTEzLjQ3LDEzLjQ3LDAsMCwxLDEzNy4xOCw3OWE0LjMxLDQuMzEsMCwwLDEsMS4zMS0uNDksMjEuNDEsMjEuNDEsMCwwLDEtMi4xOCw2LjM0Yy0uNDEuODgtLjg0LDEuNzktMS4xOSwyLjY5YTQwLDQwLDAsMCwxLTMuMjksNi43N3EtLjI2LjM5LS41NC43OEExMy4xNCwxMy4xNCwwLDAsMSwxMjkuMDcsOTcuNDZaTTE5Ljg1LDE1Mi42bDktMTMuNzVhNDcuNTgsNDcuNTgsMCwwLDEsMTQuNTUsNC42N0E1Mi40NCw1Mi40NCwwLDAsMSw1NC41MSwxNTFsMCwwLTIuNjUsMTYuNzhhNTAuNDksNTAuNDksMCwwLDAtMTQtMTAuMDZBNDUuOSw0NS45LDAsMCwwLDE5Ljg1LDE1Mi42Wm0yMi43OC0yNi4zOWE0NS4zMiw0NS4zMiwwLDAsMCwxNC45NSw1LjUzbC0yLjg1LDE4LjA5YTUzLjEzLDUzLjEzLDAsMCwwLTEwLjkyLTcuMiw0OS4wOCw0OS4wOCwwLDAsMC0xNC40LTQuNzFMMzksMTIzLjI1QTE5LjQyLDE5LjQyLDAsMCwwLDQyLjYzLDEyNi4yMVpNODgsMTMyLjU5bDEuMjYsMTYuMDljLTUuNTktMi43OS0xNC4xMS0zLjU3LTIyLjkzLTIuMDdhNTAuMzIsNTAuMzIsMCwwLDAtMTAuNTcsM2wyLjc5LTE3LjY3YTkxLjY5LDkxLjY5LDAsMCwwLDIyLjU4LDEuM0M4My41OSwxMzMuMDksODUuODUsMTMyLjg3LDg4LDEzMi41OVpNNTUuNTksMTUwLjc1YTQ4LjQsNDguNCwwLDAsMSwxMC45Mi0zLjE1YzguNzctMS40OSwxNy4yMy0uNywyMi42MSwyLjEzbC4xMS4wNS4xMy4wNywxLjMxLDE2Ljg1Yy01LjUxLTMuMzYtMTQuNy00LjQ0LTI0LjM3LTIuODFhNDguNiw0OC42LDAsMCwwLTEzLjQ2LDQuMjlaTTg5LDEzMi40NWE3NC4zNiw3NC4zNiwwLDAsMCwyMS4yMi01Ljg2LjU2LjU2LDAsMCwxLC41LDAsLjU2LjU2LDAsMCwxLC4zMS40LDg2LjUxLDg2LjUxLDAsMCwwLDYsMTcuNjJjLjMzLjY5LjY2LDEuMzgsMSwyLjA5YTMyLDMyLDAsMCwwLTE0Ljk0LTIuMTQsMzQuMzcsMzQuMzcsMCwwLDAtMTEuMTQsMy4xMWMtLjYzLjI3LTEuMTcuNDktMS42Ny42OFptODguMjgsNzEuNDctLjgyLjEzYy0uMjgsMC0uNTYsMC0uODQsMEgxNzVsLS43MSwwLTEuNDIsMC01LjY5LDBjLS4zNCwwLS45MywwLTEuNjYuMWEzMiwzMiwwLDAsMCwwLTQuNzcuMjguMjgsMCwwLDEsMC0uMDlxMi4xOSwxLDQuNDUsMS43MmwuMi4wNmE1NC43Myw1NC43MywwLDAsMCw5LjMxLDIuMjNBOC40Niw4LjQ2LDAsMCwxLDE3Ny4yOCwyMDMuOTJaTTI3Ni4xMywxNTZsLS40My0uMDVhMzQuNzQsMzQuNzQsMCwwLDAtNi4zOCwwbC0uNzUuMDhhNDkuNzgsNDkuNzgsMCwwLDAtMTYuNzMsNS4xNGMtLjM2LjE0LTguNjIsMy40OS0xMS4yNSw5bC0uMy42M2E3OS40Myw3OS40MywwLDAsMS00LjYxLDguODEsNDAuMzMsNDAuMzMsMCwwLDEtNS41LDYuNzgsODQuMzcsODQuMzcsMCwwLDAtOS4yNC0zLjU5Ljc0Ljc0LDAsMCwwLS40OCwxLjRBODguNTksODguNTksMCwwLDEsMjI5LDE4Ny41Yy40OS4yMiwxLC40NSwxLjQ1LjdhMjkuNzksMjkuNzksMCwwLDEsNi4yNiw0LjA3LDcuMzUsNy4zNSwwLDAsMSwyLjMsNC4zNmMuMDUuMjYuMDkuNTMuMTIuOGExNS44LDE1LjgsMCwwLDEsMCwzLjU3bC0uMDkuNjVhLjEzLjEzLDAsMCwxLDAsLjA2YzAsLjIyLS4wNy40NC0uMTEuNjZhMTcuNTEsMTcuNTEsMCwwLDEtLjQxLDEuNzNjLTEuNTIsNS4yMy04LjI2LDEzLjI5LTEyLjM1LDE2Ljg2YTEuMDksMS4wOSwwLDAsMC0uMTMuMTdjLS4zMS4yMS0uNTQuMzYtLjcuNDhhLjY1LjY1LDAsMCwwLS4xNy45Mi42Ny42NywwLDAsMCwuNTUuMjkuNjguNjgsMCwwLDAsLjM4LS4xMmwuNjgtLjQ2YS43Ni43NiwwLDAsMCwuMzctLjE2bC4zMy0uMzEsMS4xMS0uNzJjMy40LTIuMjMsNS0uMzYsNS4xLS4yNHMwLDAsMCwwYS4zNi4zNiwwLDAsMCwuMTYuMTQuNTQuNTQsMCwwLDAsLjI0LjA5LDEyLjU2LDEyLjU2LDAsMCwxLDIuNjguNjUsNC43MSw0LjcxLDAsMCwwLDIuNTguMzJjLjM1LS4wNi43My0uMTYsMS4xNC0uMjYsMS40Ny0uMzcsMy4xNS0uOCw0LjM4LjIyLjYxLjUxLDEuMTIuODksMS41NiwxLjIxYTcuNzEsNy43MSwwLDAsMSwxLjM1LDEuMTJoMGEuNDEuNDEsMCwwLDEsLjA5LjM3LjMzLjMzLDAsMCwxLS4xMy4xOWwtLjA2LDBhMi40MywyLjQzLDAsMCwxLTEuMjgsMCwxNC40MywxNC40MywwLDAsMC00LjIyLS4zNmMtLjM3LS40LS43NS0uNzktMS4xNy0xLjE4LS44My0uNzQtMi4xOS0uOTUtMy45NC0uNjFhLjY3LjY3LDAsMCwwLC4yNSwxLjMxLDMuMzgsMy4zOCwwLDAsMSwyLjc5LjI5LDExLjkyLDExLjkyLDAsMCwxLDIuNSwzbDAsLjA3aC0uMDVhNS43OSw1Ljc5LDAsMCwxLTIuNzEuMTQsMTAuMTgsMTAuMTgsMCwwLDEtMi4wNi0uOTQsMTAsMTAsMCwwLDAtMS44OS0uODcsMS4yMiwxLjIyLDAsMCwwLTEuMTMuMjQsMS4xNCwxLjE0LDAsMCwwLS4zNS40OSwxLjE5LDEuMTksMCwwLDAtLjEuNjVBMy40MSwzLjQxLDAsMCwxLDIzNCwyMjlsLS4zNi43N2EuMTMuMTMsMCwwLDEtLjA4LjA3bDAsMGEuMTYuMTYsMCwwLDEtLjE0LDAsNi4xNCw2LjE0LDAsMCwwLTIuMDgtMS40MWMtMS4yLS40OS0uNjMtMi43NC0uNjItMi43NmEuNjcuNjcsMCwwLDAtLjQ3LS44Mi42Ny42NywwLDAsMC0uODEuNDcsNS43MSw1LjcxLDAsMCwwLS4yLDEuNTJjLTIuNTktMS0xMC4zMy0zLjYyLTE1LjYyLS43OS0uMTguMS0uMy4xMy0uMzEuMTZhMi4xMSwyLjExLDAsMCwxLC4xLTEuMiw4LjIxLDguMjEsMCwwLDEsNC41Ny00LjkzLDEuNjUsMS42NSwwLDAsMCwuODgtMSwxLjgsMS44LDAsMCwwLS4wOC0xLjQyYy0xLjg5LTMuNzItMy41LTE1LjUxLTIuNjUtMTkuNDJsLjEyLS41MWExNi40MiwxNi40MiwwLDAsMSwuNi0xLjk0LDI4LjU0LDI4LjU0LDAsMCwxLDEuNzItMy43NS43NC43NCwwLDAsMC0xLjMxLS43LDI3LjMsMjcuMywwLDAsMC0yLjI2LDUuMzIsNTcuNDUsNTcuNDUsMCwwLDEtNiwyLjM0bC0uMjguMWMtLjczLjI0LTEuNDYuNDYtMi4xOS42N2E2Ni4zMyw2Ni4zMywwLDAsMS0xMC4zMywyLjA4LDYxLjkxLDYxLjkxLDAsMCwxLTE0LjU4LjA5bC0uMTgsMGE1Ni43MSw1Ni43MSwwLDAsMS04LjcxLTEuNzdjLS43My0uMjEtMS40Ni0uNDQtMi4xNy0uNjhsLS4zLS4xMWE1Mi4xMiw1Mi4xMiwwLDAsMS00LjkzLTIsMjUuOCwyNS44LDAsMCwwLTIuNDYtNi4wNi43My43MywwLDAsMC0xLS4zLjc0Ljc0LDAsMCwwLS4zLDEsMjcuNDksMjcuNDksMCwwLDEsMiw0LjUyLDE2LjI2LDE2LjI2LDAsMCwxLC40NiwxLjY4YzAsLjA3LDAsLjE0LjA1LjIyYTI2LjE3LDI2LjE3LDAsMCwxLC4wNiw1LjcyLDU5LjE5LDU5LjE5LDAsMCwxLTEuODgsMTEuMTIsMTQuODksMTQuODksMCwwLDEtLjg4LDIuMzYsMS43NiwxLjc2LDAsMCwwLS4wOCwxLjQyLDEuNiwxLjYsMCwwLDAsLjg3LDEsOC4yMyw4LjIzLDAsMCwxLDQuNTgsNC45Myw0Ljc4LDQuNzgsMCwwLDEsLjE2LDEuMTcuODcuODcsMCwwLDEtLjM4LS4xM2MtNS4yNi0yLjgyLTEzLS4yMy0xNS42Mi44YTYuMiw2LjIsMCwwLDAtLjE5LTEuNTMuNjcuNjcsMCwwLDAtLjgyLS40Ni42NS42NSwwLDAsMC0uNDcuODFzLjU5LDIuMjctLjYyLDIuNzZhNi4yOSw2LjI5LDAsMCwwLTIuMDgsMS40MS4xOC4xOCwwLDAsMS0uMTQuMDUuMTkuMTksMCwwLDEtLjEzLS4xTDE0NiwyMjlhMy40MywzLjQzLDAsMCwxLS40NS0xLjgsMS4yOCwxLjI4LDAsMCwwLS40NS0xLjEzLDEuMjIsMS4yMiwwLDAsMC0xLjEzLS4yNSwxMC42MSwxMC42MSwwLDAsMC0xLjg5Ljg3LDEwLjE4LDEwLjE4LDAsMCwxLTIuMDYuOTQsNC45NCw0Ljk0LDAsMCwxLTIuNzktLjIzbC4yMy0uMzhhNi4zNCw2LjM0LDAsMCwxLDIuMi0yLjUzLDQuODgsNC44OCwwLDAsMSwyLjY5LjA4bC4xNSwwYS42Ni42NiwwLDAsMCwuNzgtLjUzLjY3LjY3LDAsMCwwLS41My0uNzhsLS4xNCwwYTUuNzIsNS43MiwwLDAsMC0zLjU3LDAsNS4zMyw1LjMzLDAsMCwwLTEuNiwxLjM2Yy0uNDQsMC0xLC4wOC0xLjU0LjE0LTEuMi4xNC0zLjQzLjM5LTMuODMtLjA4LS4wNi0uMDcsMC0uMjQsMC0uMzMuMjMtLjg0LDIuNTQtMi4yOSwzLjg2LTIuNzdhNS42Myw1LjYzLDAsMCwxLDMuMzcuMWMuNDEuMS44My4xOSwxLjI3LjI3YTEwLjkxLDEwLjkxLDAsMCwwLDQtLjM0Yy40NC0uMDkuODctLjE4LDEuMjgtLjI0bDUuMzctLjg2Yy41NS41NSwxLjA5LDEuMDUsMS41OCwxLjQ4YS43NC43NCwwLDAsMCwuNDguMTguNzQuNzQsMCwwLDAsLjQ5LTEuMyw1OC4xMSw1OC4xMSwwLDAsMS03LjQ0LTguMjIsMzAuMjIsMzAuMjIsMCwwLDEtNC45MS04LjY0LDE4LjU3LDE4LjU3LDAsMCwxLS43My00LjcxYy0uMDYtMi43NC41OC01LjQ3LDIuNS03LjEyYTI5LjEzLDI5LjEzLDAsMCwxLDUuODQtMy44NmMuNDctLjI1Ljk1LS40OSwxLjQ0LS43MWE4OC40NSw4OC40NSwwLDAsMSw5LTMuNDguNzQuNzQsMCwwLDAsLjQ2LS45NC43NS43NSwwLDAsMC0uOTQtLjQ2LDg0LjUxLDg0LjUxLDAsMCwwLTkuNjcsMy43OWMtMS44Ni0xLjc4LTMuNzUtMy44LTUuNzYtNi4xMWE0OC4xNyw0OC4xNywwLDAsMC03LjY5LTcuMSw1OCw1OCwwLDAsMC0yMS4zMy05LjcyLDM1LDM1LDAsMCwwLTEyLjI1LTFjLTMuMzUuNDMtNy42LDIuMzMtMTAuNjIsNGwtMS4zNC0xNy4yNWMuNTgtLjIxLDEuMjItLjQ4LDItLjhhMzMuMzEsMzMuMzEsMCwwLDEsMTAuODEtM2M3LS41MSwxMC40MS42NiwxNS4wNywyLjI3bC40OS4xN2M1LjA4LDkuMzksMTQuNTcsMTguNjMsMTUsMTlhLjk0Ljk0LDAsMCwwLC42NS4yNi45MS45MSwwLDAsMCwuNjYtLjI5Ljg5Ljg5LDAsMCwwLC4yNC0uNTUuNzYuNzYsMCwwLDAsLjE0LS44M2MtLjgyLTEuODEtMS42LTMuNjktMi4zLTUuNTktMy42Ny05Ljg4LTUuNC0xOS43OS01LjYtMzIuMTRhODYuNTMsODYuNTMsMCwwLDEsMS4xOS0xMS40M2MuNDgtMi40OCwxLjA3LTUsMS42NC03LjM5LjQ3LTIsLjk1LTQsMS4zNy02LC4yMi0xLC40NC0yLjEuNjMtMy4xNnMuMzEtMiwuNDItM2E1LjUxLDUuNTEsMCwwLDEsLjU0LTJjLjQtLjczLjg4LTEuNDMsMS4yMy0yLjE4cy43NC0xLjUyLDEuMDgtMi4zLjY1LTEuNTUsMS0yLjMzLjc0LTEuNzEsMS4xNi0yLjYxYTIyLjIzLDIyLjIzLDAsMCwwLDIuMzItNi45LDEuNDgsMS40OCwwLDAsMSwuODYuNjcsNC4zNiw0LjM2LDAsMCwxLC40MSwyLjEsNTYuMzYsNTYuMzYsMCwwLDEtLjM3LDcuNDhjLS4xMywxLjM3LS4yNiwyLjc4LS4zNCw0LjE5LS4yMyw0LjMxLS4zLDguNTYtLjIyLDEyLjYxLjA3LDMuNzEuMjcsNy4yLjU4LDEwLjUyYTM0LjU4LDM0LjU4LDAsMCwxLTMuOC42NmwtMS41Ni4xOGEuNS41LDAsMCwwLC4wNiwxaC4wNmwxLjU2LS4xOGEzNC42MywzNC42MywwLDAsMCwzLjc4LS42NmMuMzQsMy4zMS44LDYuNDUsMS40LDkuNDZhMi4zOCwyLjM4LDAsMCwwLC4wNS4yNiwzMS41OCwzMS41OCwwLDAsMS01LjYsMS4xNS41LjUsMCwwLDAtLjQ0LjU1LjQ5LjQ5LDAsMCwwLC40OS40NUgxMzdhMzEsMzEsMCwwLDAsNS43LTEuMTcsNjcuNTUsNjcuNTUsMCwwLDAsMi42Miw5LjI0bC4xLjI1YTI5LjY3LDI5LjY3LDAsMCwxLTYuNjYsMS41Mi41LjUsMCwwLDAsLjA1LDFoLjA2YTMwLjY3LDMwLjY3LDAsMCwwLDYuOTEtMS41OCw3Mi4yLDcyLjIsMCwwLDAsNC41NCw5LjYxLDI3LjY1LDI3LjY1LDAsMCwxLTQuMzksMS41NywzMy4wNiwzMy4wNiwwLDAsMS00LjY0LjkyLjUuNSwwLDAsMCwuMDYsMWguMDZhMzMuODUsMzMuODUsMCwwLDAsNC43OC0uOTQsMjksMjksMCwwLDAsNC42My0xLjY3LDY4LjYxLDY4LjYxLDAsMCwwLDYuMzMsOS4wOCwyNi40NSwyNi40NSwwLDAsMS00LDIuMjMsMjcuNTgsMjcuNTgsMCwwLDEtOC45NCwyLjUxLjUuNSwwLDEsMCwuMDUsMSwyNy43MiwyNy43MiwwLDAsMCw5LjMtMi41OSwyNy4zMywyNy4zMywwLDAsMCw0LjI3LTIuMzcsNTcuNjksNTcuNjksMCwwLDAsNy43Niw3LjU4LDI1LjM2LDI1LjM2LDAsMCwxLTUuMjUsNC41LDM0LjQxLDM0LjQxLDAsMCwxLTYuNDQsMy4zNC41LjUsMCwwLDAtLjMuNjQuNTIuNTIsMCwwLDAsLjQ3LjMzLjM5LjM5LDAsMCwwLC4xOCwwLDM1LjE3LDM1LjE3LDAsMCwwLDYuNjMtMy40MywyNi4wOSwyNi4wOSwwLDAsMCw1LjQ5LTQuNzJjLjQuMzEuOC42MiwxLjIuOTEuNzguNTYsMS41NywxLjEsMi4zNSwxLjU5YS43NS43NSwwLDAsMCwuNC4xMi43Ni43NiwwLDAsMCwuNjQtLjM1Ljc1Ljc1LDAsMCwwLS4yNC0xYy0uNzUtLjQ4LTEuNTItMS0yLjI3LTEuNTUtOS4yOC02LjcyLTE3LjE5LTE3LjYyLTIxLjY4LTI5LjkyYTY1Ljg1LDY1Ljg1LDAsMCwxLTIuODItMTAuMjQsMTE3LjY1LDExNy42NSwwLDAsMS0yLTIwLjcyYy0uMDgtNCwwLTguMjIuMjItMTIuNS4wNy0xLjM4LjItMi43OC4zMy00LjEzYTU3LjIsNTcuMiwwLDAsMCwuMzgtNy42Nyw1LjcxLDUuNzEsMCwwLDAtLjYyLTIuODEsMywzLDAsMCwwLTEuOTEtMS40Myw1LjM5LDUuMzksMCwwLDAtMy44MS42NSwxNS4yMiwxNS4yMiwwLDAsMC00LDMuOTQsMzMuMDksMzMuMDksMCwwLDEtNC4zOSw0LjQ1LDMwLjM1LDMwLjM1LDAsMCwxLTkuMzIsNS43OGwtLjkyLjMxYTE3LjQ0LDE3LjQ0LDAsMCwxLTE0Ljg4LTEuNzYsMTMuNTksMTMuNTksMCwwLDEtNS4yOS01Ljg4Yy00LTguODIsMi44NC0xNiw3LjI5LTE5LjQ0YTE2LjY4LDE2LjY4LDAsMCwwLDYuMjItMTAuNDhjLjQzLTIuNTcsMi01LDQuNzMtNy4yMywwLDAsMCwwLDAsMGEzMC43MiwzMC43MiwwLDAsMSw1Ljg4LTMuNjhsLjA5LS4wNWgwYS40Mi40MiwwLDAsMCwuMTItLjA2YzQuNC0yLjE0LDEyLjgzLTUuMTgsMTkuODYtMS4zN2ExMS41MywxMS41MywwLDAsMSwxLjI2Ljc4LDEzLDEzLDAsMCwxLTEuNDcsMS4xNy43NS43NSwwLDAsMC0uMjEsMSwuNzYuNzYsMCwwLDAsMSwuMjEsMTQsMTQsMCwwLDAsMi4yLTEuODMuNjMuNjMsMCwwLDAsLjIzLS4yLjE5LjE5LDAsMCwwLC4wNS0uMSwxMy41NSwxMy41NSwwLDAsMCwzLjU2LTguMTMuMzcuMzcsMCwwLDEsLjMtLjM0LjM3LjM3LDAsMCwxLC40MS4xNWMuMi4zMS40LjYyLjU4LDFhMTIuMTMsMTIuMTMsMCwwLDEtMS4xMywxMy4zOWwwLDBhMTIsMTIsMCwwLDEtMi4zMywyLjIzLjc1Ljc1LDAsMCwwLC44OCwxLjIxLDE0LjUyLDE0LjUyLDAsMCwwLDEuNjctMS40NCw3LjY3LDcuNjcsMCwwLDAsLjM0LDEuMjhjLjExLjQ1LjIxLjkxLjMsMS4zNy4xNy45NC4zLDEuODkuNCwyLjg0LjE3LDEuNzEuMjQsMy40NC4yNyw1LjE2LDAsMiwuMiwzLjkxLjI3LDUuODYuMDcsMS43MS4xNCwzLjQyLjIyLDUuMTNxLjI0LDUuMzkuNTcsMTAuNzZjLjIyLDMuNTcuNDgsNy4xNS44LDEwLjcxLjI5LDMuMjguNjIsNi41NSwxLjA1LDkuOC4yNSwxLjg5LjUyLDMuNzcuODYsNS42MywxLDUuMjIsMiw5Ljg3LDMuMjQsMTQuMjNsLjI3LDFBNTQuMzcsNTQuMzcsMCwwLDAsMTYxLjg4LDEzN2MyLjcsNC44NSw2LjA1LDguMywxMCwxMC4yNmExMC43NywxMC43NywwLDAsMCw0LjcsMS4yLDcuMzIsNy4zMiwwLDAsMCwxLjMxLS4xMSw2Ljc0LDYuNzQsMCwwLDAsNS4zOS00LjgxYzEtMy41LjE2LTctLjY3LTEwLjM3LS4yMi0uODctLjQzLTEuNzQtLjYxLTIuNTktMi41Ni0xMi4zMy00Ljk1LTI1LjIyLTcuMy0zOS40MS0xLjg5LTExLjQtMy4zNS0yMy40Ni00LjMyLTM1Ljg3LS42Mi01LjI4LTEuNTgtMTUuNy0xLjE5LTIwLjQ3YTEzLDEzLDAsMCwwLDEuMjUuNzYuNzIuNzIsMCwwLDAsLjM1LjA4LjczLjczLDAsMCwwLC42Ni0uNC43NS43NSwwLDAsMC0uMzEtMUExMS41LDExLjUsMCwwLDEsMTY1Ljc2LDIwYy4xMy0uMzMuMjctLjY1LjQyLTFhLjMyLjMyLDAsMCwxLC4zMy0uMTcuMzMuMzMsMCwwLDEsLjMuMjVBMTIuOTQsMTIuOTQsMCwwLDAsMTczLjg4LDI4YS43NS43NSwwLDAsMCwuNjUtMS4zNSwxMSwxMSwwLDAsMS0xLjQ5LS44N2MuMzQtLjMxLjctLjYxLDEuMDctLjg5LDYtNC40NSwxNC4yMi0yLjgyLDE4LjYzLTEuNDFsLjI4LjA5LDAsMCwuMTQsMGEyOS43NSwyOS43NSwwLDAsMSw2LjA4LDIuNzNjMi44NSwxLjczLDQuNjYsMy44LDUuNCw2LjE3QTE1LjkyLDE1LjkyLDAsMCwwLDIxMiw0MS41OGM0LjY2LDIuNjgsMTIuMDcsOC41LDkuNDMsMTcuMzRhMTIuODUsMTIuODUsMCwwLDEtNC4xOSw2LjIyLDE2LjU5LDE2LjU5LDAsMCwxLTEzLjc3LDMuNjNjLS4zLDAtLjYxLS4xMS0uOTEtLjE4YTIyLDIyLDAsMCwxLTMuMDctLjksMzEuMTksMzEuMTksMCwwLDEtNi40Ny0zLjNjLS42OS0uNDYtMS42LTEuMDYtMi40OS0xLjcyYTIzLjU2LDIzLjU2LDAsMCwxLTIuMjctMS45MkExNC41NCwxNC41NCwwLDAsMCwxODQsNTcuNThhNS4zOSw1LjM5LDAsMCwwLTIuODItLjM0aDBsLS4wNSwwYTMsMywwLDAsMC0yLjQ0LDEuODMsNS41LDUuNSwwLDAsMC0uMjEsMi43NWMuODgsOC42NCwzLjI3LDE3LDUuNDksMjQuMTQsNS4zNCwxNy4wOSwxMC4zNSwzMy44NiwxMi45MSw1MS4xLjM1LDIuNC42Miw0LjU5LjgyLDYuNzFhNTcuMjUsNTcuMjUsMCwwLDEtMS4yMSwxOC4zMi43NS43NSwwLDAsMCwuNTYuOWguMTdhLjc1Ljc1LDAsMCwwLC43My0uNTgsNTguNDMsNTguNDMsMCwwLDAsMS4yNC0xOC43OWMtLjItMi4xNS0uNDctNC4zNy0uODMtNi43OS0yLjU3LTE3LjM1LTcuNi0zNC4xOC0xMy01MS4zMy0yLjItNy00LjU2LTE1LjM0LTUuNDMtMjMuODVhNC4yMSw0LjIxLDAsMCwxLC4xMS0yLDEuMzYsMS4zNiwwLDAsMSwuNjYtLjcsMjEsMjEsMCwwLDAsMy4xLDYuMTdjLjUxLjc5LDEsMS41NCwxLjQzLDIuM2EzOC44NywzOC44NywwLDAsMCw0LjE3LDYuMTksMTUuNjEsMTUuNjEsMCwwLDAsMi4xOCwyLjA4djBjMS43NSw2LDMuNjksMTIuNTMsNS43OSwxOC45bC0uNTQuMjdhMzIuNCwzMi40LDAsMCwxLTMuNDcsMS40MkEuNDkuNDksMCwwLDAsMTkzLDk3YS41LjUsMCwwLDAsLjQ4LjM0bC4xNiwwYTMzLjUxLDMzLjUxLDAsMCwwLDMuNjYtMS40OWwuMzUtLjE4YzEsMi44NCwxLjkzLDUuNjMsMi45Myw4LjMxbC0xLjE1LjU5YTM1LjEzLDM1LjEzLDAsMCwxLTMuNTcsMS40NS41LjUsMCwwLDAsLjE2LDEsLjQ1LjQ1LDAsMCwwLC4xNiwwLDMzLjksMzMuOSwwLDAsMCwzLjY5LTEuNDljLjMzLS4xNi42OS0uMzUsMS4wNi0uNTVxMS43Myw0LjUyLDMuMzUsOC42OWMtLjc5LjQ3LTEuNi45Mi0yLjQ1LDEuMzNzLTEuOTEuODYtMi44NiwxLjIxYS41LjUsMCwwLDAtLjMuNjQuNTEuNTEsMCwwLDAsLjQ3LjMyLjM4LjM4LDAsMCwwLC4xOCwwYzEtLjM1LDItLjc3LDIuOTQtMS4yM3MxLjYyLS44NCwyLjM5LTEuMjljLjkyLDIuMzUsMS44Miw0LjY2LDIuNzMsNi45Mi4zMS44LjY0LDEuNTksMSwyLjM4YTM1LjQ2LDM1LjQ2LDAsMCwxLTMuNTgsMiwzMi42NSwzMi42NSwwLDAsMS0zLjUzLDEuNDQuNS41LDAsMCwwLC4xNiwxLC40NS40NSwwLDAsMCwuMTYsMCwzMC44NCwzMC44NCwwLDAsMCwzLjY0LTEuNDgsMzQuNzQsMzQuNzQsMCwwLDAsMy41My0yYy40MywxLjA2Ljg1LDIuMTMsMS4yOSwzLjIuODYsMi4xMSwxLjYsNC4xNiwyLjI1LDYuMTVhMjcuNjcsMjcuNjcsMCwwLDEtMy4zNiwxLjg5LDMwLjI3LDMwLjI3LDAsMCwxLTUuMjksMiwuNTEuNTEsMCwwLDAtLjM2LjYyLjUuNSwwLDAsMCwuNDkuMzdsLjEyLDBhMzIuODYsMzIuODYsMCwwLDAsNS40Ny0yLDMyLjEyLDMyLjEyLDAsMCwwLDMuMjQtMS44MSw3Ni4xMiw3Ni4xMiwwLDAsMSwyLjUzLDEwLjc4LDI5LjQ5LDI5LjQ5LDAsMCwxLTYuNjksMi45MSwzMS45NCwzMS45NCwwLDAsMS0zLjQyLjgybC0uNTguMDlhLjUuNSwwLDAsMCwuMDcsMWguMDhsLjYtLjFhMjkuNzYsMjkuNzYsMCwwLDAsMy41NC0uODUsMzAuOSwzMC45LDAsMCwwLDYuNTYtMi43OSw2NC4yNCw2NC4yNCwwLDAsMSwuNTksMTIuNTMsMjkuNjcsMjkuNjcsMCwwLDEtNy45MiwyLjExYy0uNjIuMDktMS4yNi4xNi0xLjg5LjJhLjUuNSwwLDAsMCwwLDFoMGMuNjYtLjA1LDEuMzItLjEyLDItLjIxYTMxLjY0LDMxLjY0LDAsMCwwLDcuNzEtMiw1Ni4yNyw1Ni4yNywwLDAsMS0xLjE1LDguMDYuNzUuNzUsMCwwLDAsLjU3Ljg5bC4xNiwwYS43Ni43NiwwLDAsMCwuNzQtLjU5LDY0Ljg3LDY0Ljg3LDAsMCwwLS43LTI5LjI2YzguMTQtMTIuMzIsMTIuOS0yMy4yNSwxNS41Mi0zMy44MywxLjcxLTYuOTIsMi44OC0xNCwzLjctMTkuMjkuOTQtNiwxLjc0LTEyLjMyLDIuNC0xOC43NWEuMzEuMzEsMCwwLDEsMC0uMDhjLjE1LTIuMjYsMS4yMS0xNS4yNCwyLjQ5LTIwLjM0YTEyLjQ1LDEyLjQ1LDAsMCwwLDEuMDgsMSwuOC44LDAsMCwwLC40Ni4xNi43Mi43MiwwLDAsMCwuNTktLjI5Ljc1Ljc1LDAsMCwwLS4xMi0xLDExLjUxLDExLjUxLDAsMCwxLTIuNzItMTUsMTAuMzgsMTAuMzgsMCwwLDEsLjU5LS44OC4yOS4yOSwwLDAsMSwuMzUtLjExLjMyLjMyLDAsMCwxLC4yNC4zLDEyLjkzLDEyLjkzLDAsMCwwLDUuMzgsMTAsLjc0Ljc0LDAsMCwwLDEtLjE2Ljc1Ljc1LDAsMCwwLS4xNi0xLjA1QTEwLjIyLDEwLjIyLDAsMCwxLDI0NSwzOS4yYy40LS4yNC44LS40NywxLjIyLS42Nyw2Ljc5LTMuMzQsMTQuNjUtLjE3LDE4LjcyLDJsLjEuMDUuMDcsMCwuMTIuMDdhMjksMjksMCwwLDEsNS41LDMuNzdjMi40OSwyLjIxLDMuOSw0LjU3LDQuMiw3YTE2LDE2LDAsMCwwLDUuNTUsMTAuMjNjNC4wOSwzLjQ3LDEwLjM0LDEwLjUyLDYuMTcsMTguNzRhMTIuODcsMTIuODcsMCwwLDEtNS4yNCw1LjM4LDE2LjY5LDE2LjY5LDAsMCwxLTE1LjA2Ljc3LDIzLjA1LDIzLjA1LDAsMCwxLTIuODUtMS40NCwzMS41MywzMS41MywwLDAsMS01Ljc5LTQuNDFjLS44OC0uODQtMS41NC0xLjQ5LTIuMTMtMi4xM2EyMy44NywyMy44NywwLDAsMS0xLjktMi4zMUExNC41NCwxNC41NCwwLDAsMCwyNTAsNzIuNDhhNS41Miw1LjUyLDAsMCwwLTIuNzItLjg0aC0uMDdBMywzLDAsMCwwLDI0NC41LDczYTUuNTUsNS41NSwwLDAsMC0uNzEsMi42NmMtLjI4LDMuNjktLjMzLDcuNDEtLjM3LDExLDAsMy0uMDYsNi0uMjQsOS4wOVY5NmExODYsMTg2LDAsMCwxLTEwLjM5LDUwLjcxYy0yLDUuNzUtNS4zMSwxNC4yMy0xMC4yNywyMS40OGEuNzQuNzQsMCwwLDAsLjE5LDEsLjczLjczLDAsMCwwLDEtLjE5YzEuMjMtMS44LDIuMzYtMy42NywzLjM5LTUuNTVhMjYuNiwyNi42LDAsMCwwLDMsMS4yNywzNS42NywzNS42NywwLDAsMCw2LjU5LDEuNjNoLjA2YS41LjUsMCwwLDAsLjA3LTEsMzQuMiwzNC4yLDAsMCwxLTYuMzktMS41OSwyNS45LDI1LjksMCwwLDEtMi44Ny0xLjJBOTguOCw5OC44LDAsMCwwLDIzMi40NCwxNTJjLjY4LjMsMS4zOC41OCwyLjA4LjgzYTM0LjkxLDM0LjkxLDAsMCwwLDYuODUsMS42NmguMDZhLjUuNSwwLDAsMCwuMDYtMSwzMy41NywzMy41NywwLDAsMS02LjY0LTEuNjJjLS43LS4yNC0xLjM4LS41Mi0yLS44Mi41Mi0xLjM1LDEtMi42MywxLjM5LTMuOHExLTIuOTIsMi01Ljg4Yy43Ny4yLDEuNTYuMzgsMi4zNS41MmEzMi43LDMyLjcsMCwwLDAsNS41Mi41Ni41MS41MSwwLDAsMCwuNS0uNS40OS40OSwwLDAsMC0uNDktLjUsMzIsMzIsMCwwLDEtNS4zNi0uNTRjLS43NC0uMTQtMS40OS0uMzEtMi4yMi0uNSwxLTMuMjEsMS45Mi02LjQ1LDIuNzUtOS42OWEzMC44NSwzMC44NSwwLDAsMCw3LjI4LDEuMDUuNS41LDAsMCwwLDAtMSwyOS41OCwyOS41OCwwLDAsMS03LjA2LTFxMS4xOS00LjY5LDIuMTEtOS40MWEzMi4xNywzMi4xNywwLDAsMCw1Ljc5LjY4SDI0OGEuNS41LDAsMCwwLC41LS41LjUuNSwwLDAsMC0uNS0uNWgtLjZhMzEuMjksMzEuMjksMCwwLDEtNS42Mi0uNjZxMS01LjE2LDEuNjgtMTAuMjhhMzQuNTYsMzQuNTYsMCwwLDAsNC41NC41Ni41LjUsMCwwLDAsMC0xLDMxLjY5LDMxLjY5LDAsMCwxLTQuNDQtLjU1Yy41MS00LC44OS04LDEuMTEtMTJ2LS4yN2MuMTgtMy4wNy4yMS02LjE2LjI0LTkuMTYsMC0zLjU3LjA5LTcuMjcuMzctMTAuOTFhNC4xOCw0LjE4LDAsMCwxLC40Ny0yLDEuNDUsMS40NSwwLDAsMSwuNzctLjU4LDIxLjA3LDIxLjA3LDAsMCwwLDEuOTUsNi42M2MuMzcuODcuNzEsMS43LDEsMi41My41LDEuNCwxLDIuOCwxLjYyLDQuMTYuMjkuNjQuNjMsMS4yMiwxLDEuODJhNy42MSw3LjYxLDAsMCwxLC42OSwyLDQyLjkxLDQyLjkxLDAsMCwxLC42OCw1LjNjLjM4LDMuNzQuNzksNy40OC44OSwxMS4yNCwwLC4xNiwwLC4zMiwwLC40N3EuMDksNC43Mi0uMjQsOS40NGMtLjU3LDguMDctMi43NiwxNi40OS01LjA4LDI1LjQtLjcyLDIuNzYtMS40Niw1LjYxLTIuMTQsOC40M2ExLjUyLDEuNTIsMCwwLDAsLjc1LDEuNzIsMS41NSwxLjU1LDAsMCwwLC43NS4xOSwxLjU4LDEuNTgsMCwwLDAsMS4xMS0uNDgsODAuNTIsODAuNTIsMCwwLDAsOC42Ny0xMC42NmwxLjQ1LS40OGM0Ljg5LTEuNjUsOC40Mi0yLjgzLDE1Ljc5LTIuMzdhMzYuMTEsMzYuMTEsMCwwLDEsMTEuMzIsM2MuOC4zMiwxLjQ5LjU5LDIuMS44bC0xLjM0LDE3LjE5QTI4LjE4LDI4LjE4LDAsMCwwLDI3Ni4xOSwxNTZaIiBjbGFzcz0iY2xzLTIiLz48cGF0aCBkPSJNMTc2LjY1LDE3Ny4zN2EzMy4wOSwzMy4wOSwwLDAsMCwxMC45MiwyLjM0bDEuMzgsMGEzMi42NiwzMi42NiwwLDAsMCwxMi41Ni0yLjVoMGwuNjMtLjI3YS41LjUsMCwxLDAtLjQtLjkxbC0uNjEuMjZoMGEzMiwzMiwwLDAsMS0yNC4xLjEyLjUuNSwwLDAsMC0uNjUuMjhBLjQ5LjQ5LDAsMCwwLDE3Ni42NSwxNzcuMzdaIiBjbGFzcz0iY2xzLTIiLz48cGF0aCBkPSJNMjA1Ljc5LDE5Mi43MWE0MC44Niw0MC44NiwwLDAsMS0xOC4yMSwzLjU4LDQxLjQ3LDQxLjQ3LDAsMCwxLTE0Ljc2LTMuMi41MS41MSwwLDAsMC0uNjYuMjcuNDkuNDksMCwwLDAsLjI3LjY1LDQyLjUyLDQyLjUyLDAsMCwwLDE1LjEyLDMuMjhsMS40LDBhNDEuODgsNDEuODgsMCwwLDAsMTcuMjUtMy42OS41Mi41MiwwLDAsMCwuMjUtLjY3QS40OS40OSwwLDAsMCwyMDUuNzksMTkyLjcxWiIgY2xhc3M9ImNscy0yIi8+PHBhdGggZD0iTTE3My44MywxODUuNzZhMzkuNzEsMzkuNzEsMCwwLDAsMTMuNzMsMi45M2MuNDUsMCwuOTEsMCwxLjM2LDBhMzkuMTcsMzkuMTcsMCwwLDAsMTUuNjktMy4yNmwuNTktLjI2YS41LjUsMCwwLDAsLjI0LS42Ny40OS40OSwwLDAsMC0uNjYtLjI0bC0uNTguMjZhMzguMDksMzguMDksMCwwLDEtMTYuNjEsMy4xNSwzOC43MiwzOC43MiwwLDAsMS0xMy4zOC0yLjg2LjUuNSwwLDAsMC0uMzguOTNaIiBjbGFzcz0iY2xzLTIiLz48cGF0aCBkPSJNMTg5LjIsMzFsLjMsMGE4LjU2LDguNTYsMCwwLDEsMi4wOCwzLDEwLjYzLDEwLjYzLDAsMCwxLC42LDEuNzgsOS41Niw5LjU2LDAsMCwxLC4yOSwxLjcxQTIuNDIsMi40MiwwLDAsMSwxOTAuNzksMzljLTEuNS4zLTMuMDYtMS4yNi0zLjUtMy40N1MxODcuNywzMS4yOCwxODkuMiwzMVoiIGNsYXNzPSJjbHMtMiIvPjxwYXRoIGQ9Ik0xOTkuMTcsMzAuMjNhMS42MywxLjYzLDAsMCwxLC43NiwwLDguNDQsOC40NCwwLDAsMSwxLjQyLDIuNTcsNy4xNiw3LjE2LDAsMCwxLC4zLDEsMTAuOSwxMC45LDAsMCwxLC4yNiwxLjU1LDIsMiwwLDAsMS0xLjQzLDEuNDRjLTEuMjQuMjQtMi41MS0xLTIuODctMi44NFMxOTgsMzAuNDcsMTk5LjE3LDMwLjIzWiIgY2xhc3M9ImNscy0yIi8+PC9nPjxnIGRhdGEtbmFtZT0iSGlnaGxpZ2h0IERvdHMiIGlkPSJIaWdobGlnaHRfRG90cyI+PGcgY2xhc3M9ImNscy01Ij48ZWxsaXBzZSB0cmFuc2Zvcm09InRyYW5zbGF0ZSgtNC41NiA3LjUyKSByb3RhdGUoLTIuOTIpIiByeT0iMS44OSIgcng9IjEuMDgiIGN5PSI5My4wNCIgY3g9IjE0NS4xIiBjbGFzcz0iY2xzLTIiLz48L2c+PGcgY2xhc3M9ImNscy01Ij48ZWxsaXBzZSB0cmFuc2Zvcm09InRyYW5zbGF0ZSgtNC45OSA3Ljc0KSByb3RhdGUoLTIuOTIpIiByeT0iMS44OSIgcng9IjEuMDgiIGN5PSIxMDEuNiIgY3g9IjE0OS4xMiIgY2xhc3M9ImNscy0yIi8+PC9nPjxnIGNsYXNzPSJjbHMtNSI+PGVsbGlwc2UgdHJhbnNmb3JtPSJ0cmFuc2xhdGUoLTEuNjIgNS4zMikgcm90YXRlKC0yLjMpIiByeT0iMS4wOCIgcng9IjEuODkiIGN5PSI0My4wNCIgY3g9IjEzMS44IiBjbGFzcz0iY2xzLTIiLz48L2c+PGcgY2xhc3M9ImNscy01Ij48ZWxsaXBzZSB0cmFuc2Zvcm09InRyYW5zbGF0ZSgtNi45IDMzLjEyKSByb3RhdGUoLTE0LjQxKSIgcnk9IjAuNTQiIHJ4PSIwLjk0IiBjeT0iNDMuODUiIGN4PSIxMjcuNDkiIGNsYXNzPSJjbHMtMiIvPjwvZz48ZyBjbGFzcz0iY2xzLTUiPjxlbGxpcHNlIHRyYW5zZm9ybT0idHJhbnNsYXRlKDkyLjA2IDE3OS4xNikgcm90YXRlKC04OS4zOCkiIHJ5PSIwLjk0IiByeD0iMC41NCIgY3k9IjQzLjA0IiBjeD0iMTM2LjU5IiBjbGFzcz0iY2xzLTIiLz48L2c+PGcgY2xhc3M9ImNscy01Ij48ZWxsaXBzZSB0cmFuc2Zvcm09InRyYW5zbGF0ZSgtMC4xIDAuNzUpIHJvdGF0ZSgtMC4yMykiIHJ5PSIxLjA4IiByeD0iMS44OSIgY3k9IjI1LjA0IiBjeD0iMTgyLjY5IiBjbGFzcz0iY2xzLTIiLz48L2c+PGcgY2xhc3M9ImNscy01Ij48ZWxsaXBzZSB0cmFuc2Zvcm09InRyYW5zbGF0ZSgtMS40OCAzOC44Nykgcm90YXRlKC0xMi4zNSkiIHJ5PSIwLjU0IiByeD0iMC45NCIgY3k9IjI2LjI3IiBjeD0iMTc4LjkzIiBjbGFzcz0iY2xzLTIiLz48L2c+PGcgY2xhc3M9ImNscy01Ij48ZWxsaXBzZSB0cmFuc2Zvcm09InRyYW5zbGF0ZSgxNTMuNDggMjExLjMpIHJvdGF0ZSgtODcuMzEpIiByeT0iMC45NCIgcng9IjAuNTQiIGN5PSIyNS4yMiIgY3g9IjE4Ny40NyIgY2xhc3M9ImNscy0yIi8+PC9nPjxnIGNsYXNzPSJjbHMtNSI+PGVsbGlwc2UgdHJhbnNmb3JtPSJ0cmFuc2xhdGUoMTY4Ljc4IDI4Mi41NSkgcm90YXRlKC03OS4yOSkiIHJ5PSIxLjg5IiByeD0iMS4wOCIgY3k9IjM5LjQyIiBjeD0iMjU0LjkiIGNsYXNzPSJjbHMtMiIvPjwvZz48ZyBjbGFzcz0iY2xzLTUiPjxlbGxpcHNlIHRyYW5zZm9ybT0idHJhbnNsYXRlKC0wLjg4IDYuMTQpIHJvdGF0ZSgtMS40KSIgcnk9IjAuNTQiIHJ4PSIwLjk0IiBjeT0iMzkuMjQiIGN4PSIyNTAuNTIiIGNsYXNzPSJjbHMtMiIvPjwvZz48ZyBjbGFzcz0iY2xzLTUiPjxlbGxpcHNlIHRyYW5zZm9ybT0idHJhbnNsYXRlKDE1OS4wMSAyODMuMikgcm90YXRlKC03Ni4zNikiIHJ5PSIwLjk0IiByeD0iMC41NCIgY3k9IjQwLjUiIGN4PSIyNTkuNTYiIGNsYXNzPSJjbHMtMiIvPjwvZz48ZyBjbGFzcz0iY2xzLTUiPjxlbGxpcHNlIHRyYW5zZm9ybT0idHJhbnNsYXRlKC01LjM1IDcuNjQpIHJvdGF0ZSgtMi45MikiIHJ5PSIxLjg5IiByeD0iMS4wOCIgY3k9IjEwOC42MSIgY3g9IjE0NyIgY2xhc3M9ImNscy0yIi8+PC9nPjxnIGNsYXNzPSJjbHMtNSI+PGVsbGlwc2UgdHJhbnNmb3JtPSJ0cmFuc2xhdGUoLTUuNjkgNy45KSByb3RhdGUoLTIuOTIpIiByeT0iMS4wNyIgcng9IjAuNjEiIGN5PSIxMTUuNDgiIGN4PSIxNTEuOTciIGNsYXNzPSJjbHMtMiIvPjwvZz48ZyBjbGFzcz0iY2xzLTUiPjxlbGxpcHNlIHRyYW5zZm9ybT0idHJhbnNsYXRlKC0xMi44NiA0NC43KSByb3RhdGUoLTEzLjg2KSIgcnk9IjEuODkiIHJ4PSIxLjA4IiBjeT0iNzUuMjUiIGN4PSIxNzcuNDciIGNsYXNzPSJjbHMtMiIvPjwvZz48ZyBjbGFzcz0iY2xzLTUiPjxlbGxpcHNlIHRyYW5zZm9ybT0idHJhbnNsYXRlKC0xMy45MyAzOS41NCkgcm90YXRlKC0xMi4yNSkiIHJ5PSIxLjg5IiByeD0iMS4wOCIgY3k9Ijg0LjcxIiBjeD0iMTc3LjI5IiBjbGFzcz0iY2xzLTIiLz48L2c+PGcgY2xhc3M9ImNscy01Ij48ZWxsaXBzZSB0cmFuc2Zvcm09InRyYW5zbGF0ZSgtMTUuMzkgNDIuMTgpIHJvdGF0ZSgtMTIuNjkpIiByeT0iMS44OSIgcng9IjEuMDgiIGN5PSI5MC4zMSIgY3g9IjE4Mi4wMSIgY2xhc3M9ImNscy0yIi8+PC9nPjxnIGNsYXNzPSJjbHMtNSI+PGVsbGlwc2UgdHJhbnNmb3JtPSJ0cmFuc2xhdGUoLTE1LjQ2IDM2LjA3KSByb3RhdGUoLTEwLjk2KSIgcnk9IjEuMDciIHJ4PSIwLjYxIiBjeT0iOTguNjEiIGN4PSIxODAuMjciIGNsYXNzPSJjbHMtMiIvPjwvZz48ZyBjbGFzcz0iY2xzLTUiPjxlbGxpcHNlIHRyYW5zZm9ybT0idHJhbnNsYXRlKDE0OS42NSAzMTguNTIpIHJvdGF0ZSgtODguMDkpIiByeT0iMS4wOCIgcng9IjEuODkiIGN5PSI4MS45IiBjeD0iMjM5LjQ5IiBjbGFzcz0iY2xzLTIiLz48L2c+PGcgY2xhc3M9ImNscy01Ij48ZWxsaXBzZSB0cmFuc2Zvcm09InRyYW5zbGF0ZSgxMzAuOTQgMzIyLjExKSByb3RhdGUoLTg2LjQ4KSIgcnk9IjEuMDgiIHJ4PSIxLjg5IiBjeT0iOTEuNDMiIGN4PSIyMzYuNzQiIGNsYXNzPSJjbHMtMiIvPjwvZz48ZyBjbGFzcz0iY2xzLTUiPjxlbGxpcHNlIHRyYW5zZm9ybT0idHJhbnNsYXRlKDEyOS4wMyAzMzIuMjgpIHJvdGF0ZSgtODYuOTIpIiByeT0iMS4wOCIgcng9IjEuODkiIGN5PSI5OC4wNiIgY3g9IjIzOS44NSIgY2xhc3M9ImNscy0yIi8+PC9nPjxnIGNsYXNzPSJjbHMtNSI+PGVsbGlwc2UgdHJhbnNmb3JtPSJ0cmFuc2xhdGUoMTEwLjkyIDMzMS44KSByb3RhdGUoLTg1LjE5KSIgcnk9IjAuNjEiIHJ4PSIxLjA3IiBjeT0iMTA1LjU4IiBjeD0iMjM1LjkxIiBjbGFzcz0iY2xzLTIiLz48L2c+PGcgY2xhc3M9ImNscy01Ij48ZWxsaXBzZSB0cmFuc2Zvcm09InRyYW5zbGF0ZSgtOS45MiA3LjU2KSByb3RhdGUoLTIuOTIpIiByeT0iMS44OSIgcng9IjEuMDgiIGN5PSIxOTguMjQiIGN4PSIxNDMuMjMiIGNsYXNzPSJjbHMtMiIvPjwvZz48ZyBjbGFzcz0iY2xzLTUiPjxlbGxpcHNlIHRyYW5zZm9ybT0idHJhbnNsYXRlKC05NC44OSAxNjMuNDcpIHJvdGF0ZSgtNDUuODUpIiByeT0iMC44NCIgcng9IjEuNDYiIGN5PSIxOTMuOTEiIGN4PSIxNDUuNzkiIGNsYXNzPSJjbHMtMiIvPjwvZz48ZyBjbGFzcz0iY2xzLTUiPjxlbGxpcHNlIHRyYW5zZm9ybT0idHJhbnNsYXRlKC01OC44OSA1OC44MSkgcm90YXRlKC0xOS4yMykiIHJ5PSIxLjQ2IiByeD0iMC44NCIgY3k9IjIwMy4yMSIgY3g9IjE0NC4xNCIgY2xhc3M9ImNscy0yIi8+PC9nPjwvZz48L3N2Zz4=;imageBorder=default;" vertex="1" parent="1">
          <mxGeometry x="-320" y="1776.5" width="127.33" height="85" as="geometry" />
        </mxCell>
        <mxCell id="c5SWcreiiaStJHHrbM4M-36" value="&lt;b&gt;1&lt;/b&gt;" style="rounded=0;whiteSpace=wrap;html=1;fillColor=#0050ef;strokeColor=#001DBC;fontColor=#ffffff;" vertex="1" parent="1">
          <mxGeometry x="-472" y="1600" width="30" height="20" as="geometry" />
        </mxCell>
        <mxCell id="c5SWcreiiaStJHHrbM4M-37" value="&lt;b&gt;2&lt;/b&gt;" style="rounded=0;whiteSpace=wrap;html=1;fillColor=#0050ef;strokeColor=#001DBC;fontColor=#ffffff;" vertex="1" parent="1">
          <mxGeometry x="-370" y="1790" width="30" height="20" as="geometry" />
        </mxCell>
        <mxCell id="c5SWcreiiaStJHHrbM4M-38" value="&lt;b&gt;3&lt;/b&gt;" style="rounded=0;whiteSpace=wrap;html=1;fillColor=#0050ef;strokeColor=#001DBC;fontColor=#ffffff;" vertex="1" parent="1">
          <mxGeometry x="310" y="1790" width="30" height="20" as="geometry" />
        </mxCell>
      </root>
    </mxGraphModel>
  </diagram>
</mxfile>
